<svg xmlns="http://www.w3.org/2000/svg" xmlns:xlink="http://www.w3.org/1999/xlink" width="718.669" height="472.035" viewBox="0 0 718.669 472.035">
  <defs>
    <linearGradient id="linear-gradient" x1="0.5" y1="1" x2="0.5" gradientUnits="objectBoundingBox">
      <stop offset="0" stop-color="gray" stop-opacity="0.251"/>
      <stop offset="0.54" stop-color="gray" stop-opacity="0.122"/>
      <stop offset="1" stop-color="gray" stop-opacity="0.102"/>
    </linearGradient>
    <linearGradient id="linear-gradient-2" x1="-18.117" y1="168.355" x2="-18.117" y2="167.355" xlink:href="#linear-gradient"/>
    <linearGradient id="linear-gradient-3" y2="0" xlink:href="#linear-gradient"/>
  </defs>
  <g id="undraw_about_me_wa29" transform="translate(-0.102 -0.095)">
    <ellipse id="Ellipse_177" data-name="Ellipse 177" cx="337.821" cy="19.358" rx="337.821" ry="19.358" transform="translate(12.377 433.415)" fill="#8a8a8a" opacity="0.1"/>
    <g id="Group_34" data-name="Group 34" transform="translate(616.959 298.613)" opacity="0.2">
      <path id="Path_270" data-name="Path 270" d="M1016.252,791.51a11.076,11.076,0,0,1-1.08,1.667q-5.4-3.8-10.971-7.45c.075-.156.156-.318.244-.475a10.516,10.516,0,0,1,3.747-4.071,6.263,6.263,0,0,1,6.244-.537,6.364,6.364,0,0,1,3.085,5.482,10.515,10.515,0,0,1-1.268,5.383Z" transform="translate(-1004.2 -636.482)" fill="#3f3d56"/>
      <ellipse id="Ellipse_178" data-name="Ellipse 178" cx="8.748" cy="6.681" rx="8.748" ry="6.681" transform="translate(1.171 147.101) rotate(-62.09)" fill="#3f3d56"/>
      <ellipse id="Ellipse_179" data-name="Ellipse 179" cx="8.748" cy="6.681" rx="8.748" ry="6.681" transform="translate(6.173 137.65) rotate(-62.09)" fill="#3f3d56"/>
      <ellipse id="Ellipse_180" data-name="Ellipse 180" cx="8.748" cy="6.681" rx="8.748" ry="6.681" transform="translate(11.184 128.197) rotate(-62.09)" fill="#3f3d56"/>
      <ellipse id="Ellipse_181" data-name="Ellipse 181" cx="8.748" cy="6.681" rx="8.748" ry="6.681" transform="translate(16.188 118.74) rotate(-62.09)" fill="#3f3d56"/>
      <path id="Path_271" data-name="Path 271" d="M1042.954,587.838a32.382,32.382,0,0,1-.487-4.371l16.86,5.67-16.86-8.742a32.1,32.1,0,0,1,11.383-22.761l16.3,23.641-12.682-26.27a32.021,32.021,0,1,1,29.973,56.418,31.972,31.972,0,0,1,.5,6.869l-25.7-.2,25.3,4.165a32.052,32.052,0,0,1-18.633,24.153,32.021,32.021,0,1,1-44.479-23.554,32.027,32.027,0,0,1,18.527-34.969Z" transform="translate(-1004.645 -550.143)" fill="#8a8a8a"/>
      <path id="Path_272" data-name="Path 272" d="M1084.216,674.636a31.846,31.846,0,0,1-15.318,14.287,32.021,32.021,0,1,1-44.479-23.554C1023.177,658.545,1085.9,671.464,1084.216,674.636Z" transform="translate(-1004.638 -592.681)" opacity="0.1"/>
    </g>
    <g id="Group_36" data-name="Group 36" transform="translate(0.102 0.095)" opacity="0.2">
      <path id="Path_276" data-name="Path 276" d="M194.243,570.275a23.282,23.282,0,0,0,1.249,3.622q11.864-4.546,24-8.742c-.069-.331-.137-.674-.225-1.012a20.238,20.238,0,0,0-5.039-9.367c-3.235-3.322-7.425-4.946-11.452-3.959s-6.994,4.371-8.336,8.742a20.288,20.288,0,0,0-.194,10.715Z" transform="translate(-82.919 -251.771)" fill="#3f3d56"/>
      <ellipse id="Ellipse_186" data-name="Ellipse 186" cx="12.87" cy="16.847" rx="12.87" ry="16.847" transform="translate(102.477 282.117) rotate(-13.72)" fill="#3f3d56"/>
      <ellipse id="Ellipse_187" data-name="Ellipse 187" cx="12.87" cy="16.847" rx="12.87" ry="16.847" transform="translate(97.592 262.121) rotate(-13.72)" fill="#3f3d56"/>
      <ellipse id="Ellipse_188" data-name="Ellipse 188" cx="12.87" cy="16.847" rx="12.87" ry="16.847" transform="translate(92.713 242.118) rotate(-13.72)" fill="#3f3d56"/>
      <ellipse id="Ellipse_189" data-name="Ellipse 189" cx="12.87" cy="16.847" rx="12.87" ry="16.847" transform="translate(87.826 222.11) rotate(-13.72)" fill="#3f3d56"/>
      <path id="Path_277" data-name="Path 277" d="M134.035,159.216a61.106,61.106,0,0,0,2.985-7.993l-34.163,2.61,35.593-8.4A61.7,61.7,0,0,0,128.015,97.7L86.378,134.07l36.074-43.036A61.645,61.645,0,1,0,39.9,182.2a62.02,62.02,0,0,0-4.165,12.589l48.051,11.746-49.193-4.165a61.7,61.7,0,0,0,23.373,53.87,61.638,61.638,0,1,0,94.14-22.979A61.638,61.638,0,0,0,134,159.216Z" transform="translate(-16.342 -72.085)" fill="#8a8a8a"/>
      <path id="Path_278" data-name="Path 278" d="M47.99,310.974a61.376,61.376,0,0,0,21.855,33.9,61.638,61.638,0,1,0,94.14-22.979C169.531,309.75,46.361,304.286,47.99,310.974Z" transform="translate(-28.222 -160.718)" opacity="0.1"/>
    </g>
    <path id="Path_279" data-name="Path 279" d="M705.478,185.7H100.559a5.4,5.4,0,0,0-5.389,5.408V561.325a10.884,10.884,0,0,0,10.865,10.9H700a10.884,10.884,0,0,0,10.865-10.9V191.108A5.4,5.4,0,0,0,705.478,185.7Z" transform="translate(-45.845 -114.66)" fill="url(#linear-gradient)"/>
    <path id="Path_280" data-name="Path 280" d="M709.951,222.51V572.97a10.778,10.778,0,0,1-10.772,10.772H110.028A10.778,10.778,0,0,1,99.25,572.964V222.51Z" transform="translate(-47.377 -128.484)" fill="#fff"/>
    <path id="Path_281" data-name="Path 281" d="M709.951,194.355v15.573H99.25V194.355a5.345,5.345,0,0,1,5.345-5.345H704.606a5.345,5.345,0,0,1,5.345,5.345Z" transform="translate(-47.377 -115.903)" fill="#e8d8c7"/>
    <circle id="Ellipse_190" data-name="Ellipse 190" cx="2.498" cy="2.498" r="2.498" transform="translate(59.054 80.913)" fill="#fa5959" opacity="0.8"/>
    <circle id="Ellipse_191" data-name="Ellipse 191" cx="2.498" cy="2.498" r="2.498" transform="translate(65.923 80.913)" fill="#fed253" opacity="0.8"/>
    <circle id="Ellipse_192" data-name="Ellipse 192" cx="2.498" cy="2.498" r="2.498" transform="translate(72.792 80.913)" fill="#8ccf4d" opacity="0.8"/>
    <rect id="Rectangle_283" data-name="Rectangle 283" width="2.498" height="3.747" transform="translate(392.767 61.68) rotate(90)" fill="url(#linear-gradient-2)"/>
    <rect id="Rectangle_284" data-name="Rectangle 284" width="58.697" height="6.244" transform="translate(192.322 124.742)" fill="#e8d8c7"/>
    <rect id="Rectangle_285" data-name="Rectangle 285" width="329.704" height="6.244" transform="translate(192.322 142.851)" fill="#e8d8c7"/>
    <rect id="Rectangle_286" data-name="Rectangle 286" width="329.704" height="6.244" transform="translate(192.322 160.96)" fill="#e8d8c7"/>
    <rect id="Rectangle_287" data-name="Rectangle 287" width="329.704" height="6.244" transform="translate(192.322 179.068)" fill="#e8d8c7"/>
    <rect id="Rectangle_288" data-name="Rectangle 288" width="329.704" height="6.244" transform="translate(192.322 197.177)" fill="#e8d8c7"/>
    <rect id="Rectangle_289" data-name="Rectangle 289" width="203.567" height="157.359" transform="translate(255.284 231.721)" fill="#e8d8c7"/>
    <path id="Path_282" data-name="Path 282" d="M602.552,506.852c-.262,0-.525.037-.793.044a3.485,3.485,0,0,0,.087-1.112,10.615,10.615,0,0,0-1.249-4.5,19.537,19.537,0,0,0-1.549-2.348c-1.7-2.348-3.272-4.746-5.139-6.963a11.2,11.2,0,0,1-1.979-2.916,14.236,14.236,0,0,0-.674-1.692,3.64,3.64,0,0,0-3.4-1.655,5.4,5.4,0,0,0-3.447,1.823c-.525.562-.955,1.43-.518,2.067s1.386.718,1.443,1.417c0,.375,0,.987-.381,1.105a6.786,6.786,0,0,0-1.911.837,2.254,2.254,0,0,0-1.005,1.748c1.08.162,1.986-.743,2.966-1.249a5.476,5.476,0,0,1,3.922-.144,3.672,3.672,0,0,1,1.349.681,4.752,4.752,0,0,1,.874,1.174,12.533,12.533,0,0,1,2.161,5.857l.549,3.509a22.8,22.8,0,0,0-2.423.325,15.217,15.217,0,0,1-6.45-.437c-2.186-.624-4.371-1.761-6.625-1.249-1.055.231-2.017.818-3.085.987a8.447,8.447,0,0,1-2.5-.131l-1.717-.275c-.056-.144-.1-.293-.144-.443a12.952,12.952,0,0,1-.487-3.853,6.869,6.869,0,0,0,5.87-9.735,5.826,5.826,0,0,0,2.217-2.2l-.437-.081.412-.624a.737.737,0,0,1-.119-1.168,2.353,2.353,0,0,0-1.18-.262c.131-.243-.081-.543-.337-.624a2.934,2.934,0,0,0-.812-.05,3.975,3.975,0,0,1-1.161-.268c-2.666-.918-5.557-1.723-8.274-.955a10.348,10.348,0,0,0-3.3,1.736,4.315,4.315,0,0,0-1.761,5.664,14.666,14.666,0,0,1,.88,3.178,10.092,10.092,0,0,1-.343,3.016,12.3,12.3,0,0,0,1.817.406,10.3,10.3,0,0,1-1.8,3.7,14.714,14.714,0,0,1-1.249,1.38h-.075a30.338,30.338,0,0,1-3.747.462c-1.324,0-2.623-.5-3.94-.406a10.685,10.685,0,0,0-2.292.518,35.113,35.113,0,0,1-10.559,1.411l-.431.044.4-2.548a12.533,12.533,0,0,1,2.161-5.857,4.753,4.753,0,0,1,.874-1.174,3.7,3.7,0,0,1,1.355-.681,5.457,5.457,0,0,1,3.915.144c.98.481,1.873,1.386,2.972,1.249a2.273,2.273,0,0,0-1.012-1.748,6.789,6.789,0,0,0-1.911-.837c-.362-.119-.412-.731-.381-1.105.056-.7,1.049-.849,1.443-1.424s0-1.5-.518-2.067a5.408,5.408,0,0,0-3.447-1.817,3.628,3.628,0,0,0-3.4,1.655,13.288,13.288,0,0,0-.681,1.692,11.2,11.2,0,0,1-1.979,2.916c-1.873,2.217-3.441,4.615-5.139,6.962a20.8,20.8,0,0,0-1.549,2.342,10.766,10.766,0,0,0-1.249,4.508,3.52,3.52,0,0,0,.087,1.118.719.719,0,0,0-.069.281,1.3,1.3,0,0,0,.487.874,8.541,8.541,0,0,0,3.247,2.367,19.956,19.956,0,0,0,2.429.418c1.973.356,3.79,1.5,5.795,1.492,1.38,0,2.741-.549,4.1-.356,1.873.256,3.222,1.78,4.371,3.26a11.24,11.24,0,0,1,2.154,3.94c.443,1.742.169,3.7,1.1,5.239a3.57,3.57,0,0,1,.537,1.036,3.472,3.472,0,0,1-.381,1.7c-.787,2.417.937,5,.756,7.493-.087,1.218-.624,2.367-.681,3.584-.094,1.567.543,3.322-.331,4.627.531-.275,1.068-.518,1.617-.737-2.623,7.687-5,15.611-4.814,23.691.137,5.239,1.249,11.009-1.761,15.311a6.047,6.047,0,0,0-1.005,1.717,5.838,5.838,0,0,0,.156,2.6c.556,3.747-1.467,7.437-1.6,11.24a22.661,22.661,0,0,0,.225,3.5l.737,6.332a4.6,4.6,0,0,0-2.011,1,2.463,2.463,0,0,0-1.093,2.585,2.582,2.582,0,0,0,1.948,1.305,4.883,4.883,0,0,1,2.26.856,8.7,8.7,0,0,0,.681.674,2.5,2.5,0,0,0,1.511.281c.955-.037,1.873-.119,2.847-.25a1.131,1.131,0,0,0,.568-.181,1.249,1.249,0,0,0,.318-.937,12.4,12.4,0,0,0-.119-2.847c-.037-.181-.087-.356-.137-.537a11.1,11.1,0,0,0,.693-2.5c.193-1.249.225-2.554.306-3.834.187-3.26.624-6.494,1.124-9.729l.624-4.159c.194-1.367.393-2.735.624-4.1a129.018,129.018,0,0,1,5.383-21.793c.531-1.517,1.436-3.3,3.041-3.341l.955,1.873a66.017,66.017,0,0,1,2.96,7.418c1.249,3.241.824,7.025,2.5,10.072a13.841,13.841,0,0,1,.831,1.517,8.742,8.742,0,0,1,.512,2.542l1.105,11.24c.5,5.052,1.036,10.241,3.3,14.78a5.7,5.7,0,0,0,.5.837,14.523,14.523,0,0,0-.031,2.273.893.893,0,0,0,.887,1.118c.943.125,1.873.206,2.841.243a2.5,2.5,0,0,0,1.511-.281,7,7,0,0,0,.687-.674,4.859,4.859,0,0,1,2.254-.855,2.551,2.551,0,0,0,1.948-1.305,2.457,2.457,0,0,0-1.093-2.585,4.371,4.371,0,0,0-2.223-1.03,3.688,3.688,0,0,1-1.012-.081,4.993,4.993,0,0,0,.075-1.249,6.245,6.245,0,0,1-.062-1.486,8.836,8.836,0,0,1,.512-1.461c.718-2.211-.812-4.458-1.349-6.719-.718-3.01.35-6.163.156-9.254-.3-4.852-3.684-9.4-2.785-14.181.718-3.822.106-7.749-.574-11.577l-2.5-14.243a15.785,15.785,0,0,0-.906-3.378,7.964,7.964,0,0,0,1.361-.362,9.745,9.745,0,0,0,.331-4.839c-.187-1.636-.624-3.235-.843-4.858a32.013,32.013,0,0,1-.325-3.94,15.88,15.88,0,0,1,.275-3.884,18.694,18.694,0,0,1,1.168-3.266,57.986,57.986,0,0,1,4.371-8.742c2.566-.2,5.052-.418,7.612-.624a10.572,10.572,0,0,0,1.823-.244,23.052,23.052,0,0,1,2.329-.668,3.116,3.116,0,0,0,.862-.169c.562-.256.905-.974,1.524-1a2.651,2.651,0,0,0,.7,0c.275-.087.412-.387.624-.624.387-.431,1.018-.518,1.524-.8a2.21,2.21,0,0,0,.837-2.7Z" transform="translate(-209.766 -226.381)" fill="url(#linear-gradient-3)"/>
    <circle id="Ellipse_193" data-name="Ellipse 193" cx="6.869" cy="6.869" r="6.869" transform="translate(353.433 259.902)" fill="#a1616a"/>
    <path id="Path_283" data-name="Path 283" d="M579.072,508.481a17.127,17.127,0,0,1-2.342,2.367,18.6,18.6,0,0,0,13.425,2.21c-.169-.468-.781-.537-1.211-.774a2.616,2.616,0,0,1-1.062-1.673,13.078,13.078,0,0,1-.4-5.064,3.12,3.12,0,0,0,0-1.249,2.679,2.679,0,0,0-1.293-1.424,12.746,12.746,0,0,0-3.122-1.405c-1.137-.337-1.786-.493-1.83.831a10.522,10.522,0,0,1-2.167,6.182Z" transform="translate(-226.7 -233.162)" fill="#a1616a"/>
    <path id="Path_284" data-name="Path 284" d="M624.332,507.9l-.7-4.433a16.494,16.494,0,0,0-.556-2.635,16.993,16.993,0,0,0-1.6-3.2,4.72,4.72,0,0,0-.874-1.168,3.672,3.672,0,0,0-1.349-.681,5.439,5.439,0,0,0-3.909.15c-.98.475-1.873,1.374-2.966,1.218a2.236,2.236,0,0,1,1.012-1.742,6.6,6.6,0,0,1,1.873-.837c.356-.112.412-.724.381-1.1-.056-.693-1.049-.843-1.442-1.411s0-1.492.512-2.061a5.376,5.376,0,0,1,3.441-1.8,3.609,3.609,0,0,1,3.4,1.642,13.218,13.218,0,0,1,.681,1.686,11.236,11.236,0,0,0,1.973,2.9c1.873,2.2,3.441,4.59,5.133,6.925a21.622,21.622,0,0,1,1.549,2.335,10.558,10.558,0,0,1,1.249,4.484,2.791,2.791,0,0,1-.206,1.417,2.2,2.2,0,0,1-1.873,1.074,6.639,6.639,0,0,1-2.242-.45l-2.722-.918a1.774,1.774,0,0,1-.874-.481A.687.687,0,0,1,624.332,507.9Z" transform="translate(-240.089 -228.26)" fill="#a1616a"/>
    <path id="Path_285" data-name="Path 285" d="M539.665,509.47l.693-4.434a17.216,17.216,0,0,1,.562-2.635,16.623,16.623,0,0,1,1.6-3.2,4.412,4.412,0,0,1,.868-1.161,3.535,3.535,0,0,1,1.349-.681,5.457,5.457,0,0,1,3.915.144c.98.475,1.873,1.374,2.966,1.218a2.248,2.248,0,0,0-1.012-1.742,6.672,6.672,0,0,0-1.873-.837c-.356-.112-.412-.724-.381-1.1.056-.693,1.043-.843,1.443-1.411s0-1.492-.518-2.054a5.37,5.37,0,0,0-3.441-1.811,3.615,3.615,0,0,0-3.4,1.642,13.19,13.19,0,0,0-.674,1.686,11.371,11.371,0,0,1-1.973,2.9c-1.873,2.2-3.441,4.59-5.139,6.925a21.245,21.245,0,0,0-1.542,2.335,10.66,10.66,0,0,0-1.249,4.483,2.828,2.828,0,0,0,.212,1.424,2.2,2.2,0,0,0,1.9,1.068,6.456,6.456,0,0,0,2.236-.45l2.729-.893a1.729,1.729,0,0,0,.868-.481A.687.687,0,0,0,539.665,509.47Z" transform="translate(-209.842 -228.85)" fill="#a1616a"/>
    <path id="Path_286" data-name="Path 286" d="M618.121,681.923a2.449,2.449,0,0,1,1.093,2.573,2.586,2.586,0,0,1-1.948,1.3,4.92,4.92,0,0,0-2.254.849,6.884,6.884,0,0,1-.681.643,2.454,2.454,0,0,1-1.511.281c-.949-.038-1.873-.119-2.841-.244a1.13,1.13,0,0,1-.568-.181,1.206,1.206,0,0,1-.312-.93,11.939,11.939,0,0,1,.112-2.835,4.058,4.058,0,0,1,1.367-2.417c.724-.562,2.922-2.229,3.747-1.161.219.287.131.681.437.918s.787.106,1.137.15A4.371,4.371,0,0,1,618.121,681.923Z" transform="translate(-238.842 -300.093)" fill="#3f3d56"/>
    <path id="Path_287" data-name="Path 287" d="M555.283,682.458a2.449,2.449,0,0,0-1.093,2.573,2.548,2.548,0,0,0,1.942,1.3,4.9,4.9,0,0,1,2.254.849,6.97,6.97,0,0,0,.687.674,2.5,2.5,0,0,0,1.5.281c.949-.038,1.873-.119,2.841-.25a1.112,1.112,0,0,0,.568-.181,1.206,1.206,0,0,0,.318-.93,12.235,12.235,0,0,0-.119-2.829,4.028,4.028,0,0,0-1.367-2.423c-.718-.562-2.916-2.229-3.747-1.161-.219.287-.131.687-.443.918s-.781.106-1.137.15A4.408,4.408,0,0,0,555.283,682.458Z" transform="translate(-218.197 -300.303)" fill="#3f3d56"/>
    <path id="Path_288" data-name="Path 288" d="M567.256,576.5c-2.816,8.118-5.551,16.516-5.339,25.127.137,5.214,1.249,10.959-1.755,15.236a5.956,5.956,0,0,0-1.005,1.711,5.877,5.877,0,0,0,.15,2.585c.562,3.747-1.455,7.406-1.6,11.19a22.487,22.487,0,0,0,.225,3.484l.781,6.669c.262,2.285,3.21,3.222,5.483,3.541a8.5,8.5,0,0,0,1.93-4.49c.194-1.249.225-2.542.3-3.809.194-3.247.662-6.469,1.124-9.685l.624-4.14c.2-1.361.393-2.723.624-4.084a128.426,128.426,0,0,1,5.389-21.624c.531-1.517,1.436-3.285,3.035-3.328l.955,1.836a64.943,64.943,0,0,1,2.954,7.381c1.249,3.228.818,6.987,2.5,10.028a12.646,12.646,0,0,1,.824,1.5,8.68,8.68,0,0,1,.512,2.5l1.105,11.165c.5,5.027,1.03,10.191,3.3,14.706a3.416,3.416,0,0,0,1.043,1.374,2.829,2.829,0,0,0,3.122-.344,5.326,5.326,0,0,0,2.161-4.608,6.916,6.916,0,0,1-.062-1.48,9.851,9.851,0,0,1,.512-1.455c.724-2.2-.806-4.433-1.349-6.681-.718-3,.35-6.132.162-9.21-.3-4.833-3.678-9.367-2.785-14.119.718-3.8.106-7.712-.568-11.521l-2.529-14.175c-.4-2.235-1-4.758-2.991-5.851a7.431,7.431,0,0,0-3.641-.624C577.279,575.305,572.346,576.023,567.256,576.5Z" transform="translate(-219.556 -260.971)" fill="#3f3d56"/>
    <path id="Path_289" data-name="Path 289" d="M602.623,519.325a8.93,8.93,0,0,1-5.245-1.086,10.526,10.526,0,0,0-1.93-1.012,8.765,8.765,0,0,0-3.934.144,15.362,15.362,0,0,1-6.438-.437c-2.186-.624-4.371-1.755-6.619-1.249-1.055.231-2.011.812-3.078.98a8.193,8.193,0,0,1-2.5-.131l-7.119-1.112a19.472,19.472,0,0,0-4.883-.35,31.6,31.6,0,0,1-3.747.468c-1.318,0-2.616-.5-3.934-.412a10.713,10.713,0,0,0-2.285.518,35.171,35.171,0,0,1-10.534,1.4,15.817,15.817,0,0,0-7.924,2.748,1.249,1.249,0,0,0-.624.868,1.28,1.28,0,0,0,.493.862,8.456,8.456,0,0,0,3.241,2.36,19.631,19.631,0,0,0,2.423.412c1.967.362,3.784,1.492,5.782,1.492,1.38,0,2.735-.549,4.1-.356,1.873.256,3.216,1.767,4.371,3.241a11.347,11.347,0,0,1,2.154,3.922c.437,1.736.162,3.684,1.093,5.214a3.608,3.608,0,0,1,.537,1.03,3.435,3.435,0,0,1-.381,1.692c-.787,2.4.937,4.946.756,7.493-.087,1.205-.624,2.354-.681,3.559-.087,1.567.543,3.309-.331,4.608a22.387,22.387,0,0,1,10.9-2.379,13.657,13.657,0,0,1,1.873.175,26.231,26.231,0,0,1,3.547.987c2.61.83,5.483,1.424,8.055.475a9.581,9.581,0,0,0,.325-4.814c-.194-1.624-.593-3.222-.837-4.839a31.735,31.735,0,0,1-.325-3.922,15.731,15.731,0,0,1,.275-3.865,18.307,18.307,0,0,1,1.168-3.247,57.2,57.2,0,0,1,4.371-8.742c2.56-.206,5.039-.425,7.6-.624a11.777,11.777,0,0,0,1.817-.244,23.376,23.376,0,0,1,2.323-.662,3.068,3.068,0,0,0,.862-.175c.562-.256.912-.968,1.524-.987a2.926,2.926,0,0,0,.7,0c.275-.081.406-.387.625-.624.387-.431,1.018-.518,1.524-.793A2.2,2.2,0,0,0,602.623,519.325Z" transform="translate(-209.837 -238.348)" fill="#ef9e4b"/>
    <path id="Path_290" data-name="Path 290" d="M589.015,495.991a1.249,1.249,0,0,0,1.418.087,1.761,1.761,0,0,0,.524-.962,22.1,22.1,0,0,0,.543-2.373,2.605,2.605,0,0,1,.312-.993c.456-.7,1.442-.737,2.21-1.055a5.745,5.745,0,0,0,2.267-2.223l-.431-.087.406-.624a.724.724,0,0,1-.112-1.155,2.3,2.3,0,0,0-1.186-.269c.131-.237-.081-.537-.337-.624a2.667,2.667,0,0,0-.806-.044,3.982,3.982,0,0,1-1.161-.275c-2.66-.912-5.545-1.717-8.255-.949a10.265,10.265,0,0,0-3.3,1.73,4.29,4.29,0,0,0-1.755,5.62,14.545,14.545,0,0,1,.874,3.153,10.044,10.044,0,0,1-.337,3.01,9.816,9.816,0,0,0,2.279.443,3.272,3.272,0,0,0,2.186-.624,12.409,12.409,0,0,0,1.486-2.042,2.117,2.117,0,0,1,1.8-.949C588.334,494.892,588.459,495.6,589.015,495.991Z" transform="translate(-227.52 -226.741)" fill="#3f3d56"/>
    <path id="Path_291" data-name="Path 291" d="M486.138,692h-7.312a.955.955,0,0,0,0,1.873h1.461v12.408H455.266a.693.693,0,0,0-.556-.337H447.4a.955.955,0,0,0,0,1.873h1.461v12.745H424.706a.774.774,0,0,0-.687-.674h-7.3a.949.949,0,0,0,0,1.873h.731v13.113H392.891a.625.625,0,0,0-.3-.081h-7.306a.955.955,0,0,0,0,1.873h.731v12.489H361.769a.7.7,0,0,0-.624-.425h-7.306a.955.955,0,0,0,0,1.873h.731v13.831H519.752V692Z" transform="translate(-142.703 -304.806)" fill="#3f3d56"/>
    <path id="Path_292" data-name="Path 292" d="M175.5,296.213a17.3,17.3,0,0,0-2.442-2.61,2.1,2.1,0,0,1,.231-3.341c.3-.194.593-.4.887-.624,3.409-2.591,5.133-6.07,3.84-7.774s-5.108-.98-8.517,1.611a13.107,13.107,0,0,0-1.13.943,2.092,2.092,0,0,1-3.272-.624,17.658,17.658,0,0,0-1.68-2.673c-3.035-4-7.106-6.013-9.1-4.5s-1.155,5.982,1.873,9.991a17.226,17.226,0,0,0,1.967,2.186,2.111,2.111,0,0,1-.462,3.366h0c-3.747,2.142-5.863,5.37-4.8,7.225s4.946,1.624,8.661-.512a16.316,16.316,0,0,0,1.661-1.105,2.111,2.111,0,0,1,3.185.774,16.4,16.4,0,0,0,1.873,3.122c3.029,4,7.106,6.013,9.1,4.5S178.529,300.216,175.5,296.213Z" transform="translate(-67.421 -148.616)" fill="#e8d8c7" opacity="0.1"/>
    <path id="Path_293" data-name="Path 293" d="M891.444,465.226a17,17,0,0,0,1.792-3.091,2.086,2.086,0,0,1,3.253-.749c.275.225.562.443.856.662,3.472,2.5,7.306,3.122,8.555,1.405s-.549-5.17-4.021-7.681q-.624-.443-1.249-.806a2.092,2.092,0,0,1-.343-3.316,16.977,16.977,0,0,0,2.061-2.385c2.941-4.065,3.678-8.549,1.655-9.991s-6.057.624-9,4.715a17.621,17.621,0,0,0-1.517,2.5,2.111,2.111,0,0,1-3.353.543h0c-3.122-2.929-6.869-4.04-8.311-2.5s-.106,5.2,3.022,8.118a15.1,15.1,0,0,0,1.542,1.249,2.111,2.111,0,0,1,.181,3.272,16.761,16.761,0,0,0-2.454,2.741c-2.941,4.065-3.678,8.549-1.648,9.991S888.5,469.3,891.444,465.226Z" transform="translate(-341.063 -209.72)" fill="#e8d8c7" opacity="0.1"/>
    <ellipse id="Ellipse_194" data-name="Ellipse 194" cx="21.106" cy="4.059" rx="21.106" ry="4.059" transform="translate(532.472 458.18)" fill="#8a8a8a"/>
    <ellipse id="Ellipse_195" data-name="Ellipse 195" cx="2.46" cy="3.216" rx="2.46" ry="3.216" transform="translate(550.768 457.299)" fill="#3f3d56"/>
    <ellipse id="Ellipse_196" data-name="Ellipse 196" cx="2.46" cy="3.216" rx="2.46" ry="3.216" transform="translate(550.768 453.365)" fill="#3f3d56"/>
    <ellipse id="Ellipse_197" data-name="Ellipse 197" cx="2.46" cy="3.216" rx="2.46" ry="3.216" transform="translate(550.768 449.438)" fill="#3f3d56"/>
    <ellipse id="Ellipse_198" data-name="Ellipse 198" cx="2.46" cy="3.216" rx="2.46" ry="3.216" transform="translate(550.768 445.504)" fill="#3f3d56"/>
    <ellipse id="Ellipse_199" data-name="Ellipse 199" cx="2.46" cy="3.216" rx="2.46" ry="3.216" transform="translate(550.768 441.57)" fill="#3f3d56"/>
    <ellipse id="Ellipse_200" data-name="Ellipse 200" cx="2.46" cy="3.216" rx="2.46" ry="3.216" transform="translate(550.768 437.642)" fill="#3f3d56"/>
    <ellipse id="Ellipse_201" data-name="Ellipse 201" cx="2.46" cy="3.216" rx="2.46" ry="3.216" transform="translate(550.768 433.708)" fill="#3f3d56"/>
    <path id="Path_294" data-name="Path 294" d="M904.214,717.116a12.465,12.465,0,0,0,.912-1.349l-6.451-1.062,6.981.056a11.765,11.765,0,0,0,.225-9.329l-9.367,4.858,8.642-6.351a11.771,11.771,0,1,0-19.445,13.176,12.044,12.044,0,0,0-1.342,2.148l8.386,4.371-8.942-3a11.8,11.8,0,0,0,1.873,11.053,11.771,11.771,0,1,0,18.508,0,11.783,11.783,0,0,0,0-14.556Z" transform="translate(-341.787 -307.099)" fill="#8a8a8a"/>
    <path id="Path_295" data-name="Path 295" d="M883.189,740.1a11.759,11.759,0,0,0,2.5,7.281,11.771,11.771,0,1,0,18.508,0C905.787,745.373,883.189,738.779,883.189,740.1Z" transform="translate(-341.787 -322.805)" opacity="0.1"/>
    <ellipse id="Ellipse_202" data-name="Ellipse 202" cx="9.554" cy="1.836" rx="9.554" ry="1.836" transform="translate(159.37 461.371)" fill="#8a8a8a"/>
    <ellipse id="Ellipse_203" data-name="Ellipse 203" cx="1.112" cy="1.455" rx="1.112" ry="1.455" transform="translate(167.656 460.971)" fill="#3f3d56"/>
    <ellipse id="Ellipse_204" data-name="Ellipse 204" cx="1.112" cy="1.455" rx="1.112" ry="1.455" transform="translate(167.656 459.192)" fill="#3f3d56"/>
    <ellipse id="Ellipse_205" data-name="Ellipse 205" cx="1.112" cy="1.455" rx="1.112" ry="1.455" transform="translate(167.656 457.412)" fill="#3f3d56"/>
    <ellipse id="Ellipse_206" data-name="Ellipse 206" cx="1.112" cy="1.455" rx="1.112" ry="1.455" transform="translate(167.656 455.632)" fill="#3f3d56"/>
    <ellipse id="Ellipse_207" data-name="Ellipse 207" cx="1.112" cy="1.455" rx="1.112" ry="1.455" transform="translate(167.656 453.853)" fill="#3f3d56"/>
    <ellipse id="Ellipse_208" data-name="Ellipse 208" cx="1.112" cy="1.455" rx="1.112" ry="1.455" transform="translate(167.656 452.073)" fill="#3f3d56"/>
    <ellipse id="Ellipse_209" data-name="Ellipse 209" cx="1.112" cy="1.455" rx="1.112" ry="1.455" transform="translate(167.656 450.293)" fill="#3f3d56"/>
    <path id="Path_296" data-name="Path 296" d="M287.373,770.673a5.052,5.052,0,0,0,.418-.625l-2.922-.481h3.16a5.333,5.333,0,0,0,.487-2.229,5.265,5.265,0,0,0-.387-1.992l-4.24,2.2,3.909-2.872a14.941,14.941,0,0,0-9.423,6.931l3.79,1.973-4.046-1.361a66.576,66.576,0,0,1,1.428,12.214,10.8,10.8,0,0,0,7.807-13.806Z" transform="translate(-114.447 -331.107)" fill="#8a8a8a"/>
    <path id="Path_297" data-name="Path 297" d="M277.868,781.093a21.092,21.092,0,0,1,1.71,10.516,5.333,5.333,0,0,0,7.807-7.219C288.1,783.5,277.868,780.493,277.868,781.093Z" transform="translate(-114.458 -338.237)" opacity="0.1"/>
  </g>
</svg>
