<svg xmlns="http://www.w3.org/2000/svg" xmlns:xlink="http://www.w3.org/1999/xlink" width="872.417" height="691.528" viewBox="0 0 872.417 691.528">
  <defs>
    <filter id="Rectangle_26" x="57.417" y="270.528" width="567" height="421" filterUnits="userSpaceOnUse">
      <feOffset dy="3" input="SourceAlpha"/>
      <feGaussianBlur stdDeviation="3" result="blur"/>
      <feFlood flood-opacity="0.161"/>
      <feComposite operator="in" in2="blur"/>
      <feComposite in="SourceGraphic"/>
    </filter>
    <filter id="Rectangle_27" x="332.417" y="480.528" width="540" height="145" filterUnits="userSpaceOnUse">
      <feOffset dy="3" input="SourceAlpha"/>
      <feGaussianBlur stdDeviation="3" result="blur-2"/>
      <feFlood flood-opacity="0.161"/>
      <feComposite operator="in" in2="blur-2"/>
      <feComposite in="SourceGraphic"/>
    </filter>
    <linearGradient id="linear-gradient" x1="0.5" y1="1" x2="0.5" y2="-0.001" gradientUnits="objectBoundingBox">
      <stop offset="0" stop-color="gray" stop-opacity="0.251"/>
      <stop offset="0.54" stop-color="gray" stop-opacity="0.122"/>
      <stop offset="1" stop-color="gray" stop-opacity="0.102"/>
    </linearGradient>
  </defs>
  <g id="Group_65" data-name="Group 65" transform="translate(-82.583 -3674.036)">
    <g id="Group_2" data-name="Group 2" transform="translate(0 -2400.437)">
      <g transform="matrix(1, 0, 0, 1, 82.58, 6074.47)" filter="url(#Rectangle_26)">
        <rect id="Rectangle_26-2" data-name="Rectangle 26" width="549" height="403" rx="4" transform="translate(66.42 276.53)" fill="#051722" opacity="0.2"/>
      </g>
      <g transform="matrix(1, 0, 0, 1, 82.58, 6074.47)" filter="url(#Rectangle_27)">
        <rect id="Rectangle_27-2" data-name="Rectangle 27" width="522" height="127" rx="4" transform="translate(341.42 486.53)" fill="#051722"/>
      </g>
    </g>
    <g id="undraw_programming_2svr" transform="translate(82.572 3674.001)">
      <path id="Path_149" data-name="Path 149" d="M791.643,497.561q-1.289,2.778-2.571,5.482-2,4.2-3.949,8.238c-.578,1.193-1.156,2.363-1.719,3.534-6.371,13.016-12.32,24.529-17.373,34a54.237,54.237,0,0,1-47.273,28.67l-112.348,1.222h-1.185l-9.631.1-8.238.089-25.263.274h-1.022l-12.861.141h-.393l-79.27.859-70.757.741-8.231.089-51.118.556h-.059l-33.152.356h-.356l-104.829,1.133-31.36.341a65.243,65.243,0,0,1-19.758-2.83,64,64,0,0,1-28.959-18.336,148.124,148.124,0,0,1-29.878-50.94q-1.43-4.067-2.667-8.238c-22.825-77.158,5-176.7,55.081-243.321q3.149-4.178,6.4-8.149l.052-.059c15.4-18.906,32.671-34.7,51.066-45.932,32.6-19.936,68.713-25.551,104.236-8.816,30.056,14.165,58.119,20.825,85.322,22.633,2.749.178,5.5.311,8.231.393,62.4,1.963,120.882-20.521,189.558-35.034,2.734-.578,5.475-1.148,8.238-1.689,48.992-9.749,103.339-14.891,167.97-4.082a140.085,140.085,0,0,1,19.825,4.741q4.275,1.378,8.238,2.963c30.849,12.55,47.673,35.738,54.822,64.794q1.015,4.045,1.756,8.231C860.9,329.606,823.773,428.745,791.643,497.561Z" transform="translate(-79.34 -172.91)" fill="#8a8a8a" opacity="0.1"/>
      <g id="Group_24" data-name="Group 24" transform="translate(8.085 10.136)" opacity="0.1">
        <path id="Path_150" data-name="Path 150" d="M224.358,217V594.546l-31.36.341a65.247,65.247,0,0,1-19.758-2.83V262.932h.052C188.694,244,205.963,228.209,224.358,217Z" transform="translate(-111.758 -194.464)" fill="#8a8a8a"/>
        <path id="Path_151" data-name="Path 151" d="M870.352,287.208H164.6q3.149-4.178,6.4-8.149V279H868.6Q869.611,283.023,870.352,287.208Z" transform="translate(-109.519 -210.532)" fill="#8a8a8a"/>
        <path id="Path_152" data-name="Path 152" d="M1037.938,190.463V506.8h-2.571q-2,4.2-3.949,8.238c-.578,1.193-1.156,2.363-1.719,3.534V187.47Q1033.975,188.848,1037.938,190.463Z" transform="translate(-333.72 -186.811)" fill="#8a8a8a"/>
        <path id="Path_153" data-name="Path 153" d="M773.328,186.58V582.373l-8.238.089V188.269C767.824,187.691,770.565,187.121,773.328,186.58Z" transform="translate(-265.143 -186.58)" fill="#8a8a8a"/>
        <path id="Path_154" data-name="Path 154" d="M506.341,236.013V597.23l-8.231.089V235.62C500.859,235.8,503.607,235.9,506.341,236.013Z" transform="translate(-195.952 -199.289)" fill="#8a8a8a"/>
        <path id="Path_155" data-name="Path 155" d="M791.9,618.52q-2,4.2-3.949,8.238H92.917q-1.43-4.067-2.667-8.238Z" transform="translate(-90.25 -298.523)" fill="#8a8a8a"/>
      </g>
      <rect id="Rectangle_203" data-name="Rectangle 203" width="14.076" height="42.717" transform="translate(156.764 196.946)" fill="#3f3d56"/>
      <rect id="Rectangle_204" data-name="Rectangle 204" width="14.076" height="45.191" transform="translate(535.577 194.723)" fill="#3f3d56"/>
      <path id="Path_156" data-name="Path 156" d="M666.914,526.264v9.631l-112.548,1.037-1.2.022-42.776.393-1.022.015-13,.111h-.385l-79.255.733-130.1,1.208h-.111l-33.078.311-.356.007L106.1,541.081V529.968l34.56-20.743L210,508.647l1.482-.007.489-.007,1.482-.022,33.293-.274,1.489-.007.474-.007,1.482-.007,10.675-.089.282-.007,26.337-.222h.215l205.508-1.734,5.03-.037h.5l3.838-.037,27.893-.23,1.482-.022,1.371-.015h.711l8.675-.067,1.719-.022,2.3-.015,7.223-.067,11.461-.1,1.482-.015,2.578-.015h.481l55.348-.474Z" transform="translate(-27.494 -130.907)" fill="#65617d"/>
      <path id="Path_157" data-name="Path 157" d="M666.914,526.264v9.631l-112.548,1.037-1.2.022-42.776.393-1.022.015-13,.111h-.385l-79.255.733-130.1,1.208h-.111l-33.078.311-.356.007L106.1,541.081V529.968l34.56-20.743L210,508.647l1.482-.007.489-.007,1.482-.022,33.293-.274,1.489-.007.474-.007,1.482-.007,10.675-.089.282-.007,26.337-.222h.215l205.508-1.734,5.03-.037h.5l3.838-.037,27.893-.23,1.482-.022,1.371-.015h.711l8.675-.067,1.719-.022,2.3-.015,7.223-.067,11.461-.1,1.482-.015,2.578-.015h.481l55.348-.474Z" transform="translate(-27.494 -130.907)" fill="#ffa64b" opacity="0.536"/>
      <path id="Path_158" data-name="Path 158" d="M363.215,656.57v18.143a4.541,4.541,0,0,1-2.593,4.1,4.445,4.445,0,0,1-1.852.444l-25.855.548a4.445,4.445,0,0,1-2-.422,4.534,4.534,0,0,1-2.645-4.126V656.57Z" transform="translate(-143.851 -298.247)" fill="#3f3d56"/>
      <path id="Path_159" data-name="Path 159" d="M363.215,656.57v18.143a4.541,4.541,0,0,1-2.593,4.1,4.445,4.445,0,0,1-1.852.444l-25.855.548a4.445,4.445,0,0,1-2-.422,4.534,4.534,0,0,1-2.645-4.126V656.57Z" transform="translate(-143.851 -298.247)" opacity="0.1"/>
      <path id="Path_160" data-name="Path 160" d="M365.215,656.57v18.143a4.541,4.541,0,0,1-2.593,4.1,4.445,4.445,0,0,1-1.852.444l-25.855.548a4.446,4.446,0,0,1-2-.422,4.534,4.534,0,0,1-2.645-4.126V656.57Z" transform="translate(-144.369 -298.247)" fill="#3f3d56"/>
      <rect id="Rectangle_205" data-name="Rectangle 205" width="34.945" height="23.336" transform="translate(504.461 358.323)" fill="#3f3d56"/>
      <rect id="Rectangle_206" data-name="Rectangle 206" width="34.945" height="23.336" transform="translate(504.461 358.323)" opacity="0.1"/>
      <rect id="Rectangle_207" data-name="Rectangle 207" width="34.945" height="23.336" transform="translate(502.98 358.323)" fill="#3f3d56"/>
      <path id="Path_161" data-name="Path 161" d="M225.676,265.82v4.245L211.6,269.7V265.82Z" transform="translate(-54.836 -68.881)" opacity="0.1"/>
      <path id="Path_162" data-name="Path 162" d="M378.589,272.824l-16.913,121.5a3.186,3.186,0,0,1-3.237,2.748l-135.425-3.512-2.571-.067a3.186,3.186,0,0,1-3.082-3.608L236.348,262.7a3.186,3.186,0,0,1,3.363-2.689l135.914,9.2a3.178,3.178,0,0,1,2.963,3.615Z" transform="translate(-115.1 -195.471)" fill="#2e3346"/>
      <path id="Path_163" data-name="Path 163" d="M170.92,99.16,156.6,211.271l124.461,3.949,15.306-108.162Z" transform="translate(-40.582 -25.689)" fill="#fdfdfd"/>
      <rect id="Rectangle_208" data-name="Rectangle 208" width="151.627" height="128.409" rx="5.33" transform="translate(284.929 71.737)" fill="#2e3346"/>
      <rect id="Rectangle_209" data-name="Rectangle 209" width="137.796" height="106.925" transform="translate(292.085 80.383)" fill="#fdfdfd"/>
      <path id="Path_164" data-name="Path 164" d="M737.006,262.82v2.808l-14.076.289v-3.1Z" transform="translate(-187.353 -68.104)" opacity="0.1"/>
      <path id="Path_165" data-name="Path 165" d="M852.723,387.012a2.282,2.282,0,0,1-2.223,2.43l-138.685,2.867a2.282,2.282,0,0,1-2.319-2.067l-11.92-123.927a2.282,2.282,0,0,1,2.163-2.5l137.633-6.845,1.482-.074a2.274,2.274,0,0,1,2.385,2.074Z" transform="translate(-239.558 -194.667)" fill="#2e3346"/>
      <path id="Path_166" data-name="Path 166" d="M628.93,101l125.7-6.179,10.616,112.607-124.705,2.963Z" transform="translate(-162.992 -24.565)" fill="#fdfdfd"/>
      <path id="Path_167" data-name="Path 167" d="M901.63,387.012a2.282,2.282,0,0,1-2.222,2.43L886.28,256.973l1.482-.074a2.274,2.274,0,0,1,2.385,2.074Z" transform="translate(-288.466 -194.667)" opacity="0.1"/>
      <path id="Path_168" data-name="Path 168" d="M239.733,260,223.013,393.555l-2.571-.067a3.186,3.186,0,0,1-3.082-3.608l18.988-127.187A3.186,3.186,0,0,1,239.733,260Z" transform="translate(-115.1 -195.468)" opacity="0.1"/>
      <rect id="Rectangle_210" data-name="Rectangle 210" width="14.076" height="12.654" transform="translate(156.764 227.009)" opacity="0.1"/>
      <path id="Path_169" data-name="Path 169" d="M285.875,483.65v3.682l-34.945.933V483.65Z" transform="translate(-65.029 -125.335)" opacity="0.1"/>
      <path id="Path_170" data-name="Path 170" d="M408.987,484.246V608.855a2.963,2.963,0,0,1-2.852,2.926L264.153,615.56h-.037a2.963,2.963,0,0,1-2.926-2.926V484.246a2.963,2.963,0,0,1,2.926-2.926H406.061a2.963,2.963,0,0,1,2.926,2.926Z" transform="translate(-126.466 -252.829)" fill="#2e3346"/>
      <path id="Path_171" data-name="Path 171" d="M264.153,481.32V615.56h-.037a2.963,2.963,0,0,1-2.926-2.926V484.246a2.963,2.963,0,0,1,2.926-2.926Z" transform="translate(-126.466 -252.829)" opacity="0.1"/>
      <path id="Path_172" data-name="Path 172" d="M194.6,319.15H326.1V428.979l-131.5,2.963Z" transform="translate(-50.43 -82.703)" fill="#fdfdfd"/>
      <rect id="Rectangle_211" data-name="Rectangle 211" width="14.076" height="12.905" transform="translate(535.577 227.009)" opacity="0.1"/>
      <path id="Path_173" data-name="Path 173" d="M713.875,483.65V488.4l-34.945-.933V483.65Z" transform="translate(-175.95 -125.335)" opacity="0.1"/>
      <path id="Path_174" data-name="Path 174" d="M815.977,484.246V612.633a2.963,2.963,0,0,1-2.963,2.926h0L671,611.782a2.963,2.963,0,0,1-2.852-2.926V484.246a2.963,2.963,0,0,1,2.926-2.926H813.021a2.963,2.963,0,0,1,2.956,2.926Z" transform="translate(-231.935 -252.829)" fill="#2e3346"/>
      <path id="Path_175" data-name="Path 175" d="M866.653,484.246V612.633a2.963,2.963,0,0,1-2.963,2.926h0V481.32h0a2.963,2.963,0,0,1,2.963,2.927Z" transform="translate(-282.611 -252.829)" opacity="0.1"/>
      <path id="Path_176" data-name="Path 176" d="M729.6,319.15H598.1V428.979l131.5,2.963Z" transform="translate(-155.002 -82.703)" fill="#fdfdfd"/>
      <path id="Path_177" data-name="Path 177" d="M611.487,484.246V608.855a2.963,2.963,0,0,1-2.852,2.926L466.653,615.56h0a2.963,2.963,0,0,1-2.963-2.927V484.246a2.963,2.963,0,0,1,2.926-2.926H608.561A2.963,2.963,0,0,1,611.487,484.246Z" transform="translate(-178.946 -252.829)" fill="#2e3346"/>
      <path id="Path_178" data-name="Path 178" d="M397.1,319.15H528.6V428.979l-131.5,2.963Z" transform="translate(-102.911 -82.703)" fill="#fdfdfd"/>
      <path id="Path_179" data-name="Path 179" d="M666.914,533.65v9.631l-112.548,1.037-1.2.022-42.776.393-1.022.015-13,.111h-.385l-79.255.733-130.1,1.208h-.111l-33.078.311-.356.007L106.1,548.467V537.354l150.027-.985h.356l30.367-.207h.141l209.716-1.385h.215l.126-.007h.348l3.549-.022h1.082l55.185-.37,3.26-.015.726-.007Z" transform="translate(-27.494 -138.293)" fill="#ffa64b" opacity="0.536"/>
      <circle id="Ellipse_149" data-name="Ellipse 149" cx="38.027" cy="38.027" r="38.027" transform="translate(322.956 163.608)" fill="#fbbebe"/>
      <g id="Group_52" data-name="Group 52">
        <g id="Group_49" data-name="Group 49" transform="translate(310.586 -6.201)">
          <line id="Line_2" data-name="Line 2" y1="0.741" x2="75.277" transform="translate(147.422 253.272)" fill="none" stroke="#ffa64b" stroke-miterlimit="10" stroke-width="4"/>
          <line id="Line_3" data-name="Line 3" y1="0.733" x2="75.277" transform="translate(147.422 262.517)" fill="none" stroke="#ffa64b" stroke-miterlimit="10" stroke-width="4"/>
          <line id="Line_4" data-name="Line 4" y1="0.741" x2="75.277" transform="translate(147.422 271.756)" fill="none" stroke="#ffa64b" stroke-miterlimit="10" stroke-width="4"/>
        </g>
        <g id="Group_50" data-name="Group 50" transform="translate(310.586 25.799)">
          <line id="Line_2-2" data-name="Line 2" y1="0.741" x2="58.751" transform="translate(147.422 253.272)" fill="none" stroke="#ffa64b" stroke-miterlimit="10" stroke-width="4"/>
          <line id="Line_3-2" data-name="Line 3" y1="0.733" x2="58.751" transform="translate(147.422 262.517)" fill="none" stroke="#ffa64b" stroke-miterlimit="10" stroke-width="4"/>
          <line id="Line_4-2" data-name="Line 4" y1="0.741" x2="58.751" transform="translate(147.422 271.756)" fill="none" stroke="#ffa64b" stroke-miterlimit="10" stroke-width="4"/>
        </g>
        <g id="Group_51" data-name="Group 51" transform="translate(310.586 58.633)">
          <line id="Line_2-3" data-name="Line 2" y1="0.741" x2="71.943" transform="translate(147.422 253.272)" fill="none" stroke="#ffa64b" stroke-miterlimit="10" stroke-width="4"/>
          <line id="Line_3-3" data-name="Line 3" y1="0.733" x2="71.943" transform="translate(147.422 262.517)" fill="none" stroke="#ffa64b" stroke-miterlimit="10" stroke-width="4"/>
          <line id="Line_4-3" data-name="Line 4" y1="0.741" x2="71.943" transform="translate(147.422 271.756)" fill="none" stroke="#ffa64b" stroke-miterlimit="10" stroke-width="4"/>
        </g>
      </g>
      <g id="Group_48" data-name="Group 48" transform="translate(155 -7.388)">
        <line id="Line_2-4" data-name="Line 2" y1="0.741" x2="75.277" transform="translate(147.422 253.272)" fill="none" stroke="#ffa64b" stroke-miterlimit="10" stroke-width="4"/>
        <line id="Line_3-4" data-name="Line 3" y1="0.733" x2="75.277" transform="translate(147.422 262.517)" fill="none" stroke="#ffa64b" stroke-miterlimit="10" stroke-width="4"/>
        <line id="Line_4-4" data-name="Line 4" y1="0.741" x2="75.277" transform="translate(147.422 271.756)" fill="none" stroke="#ffa64b" stroke-miterlimit="10" stroke-width="4"/>
      </g>
      <g id="undraw_design_components_9vy6" transform="matrix(0.866, 0, -0.155, 0.951, 143.654, 103.569)">
        <path id="Path_128" data-name="Path 128" d="M133.694,205.26a23.571,23.571,0,0,0-8.89,1.724l-.342.141A23.662,23.662,0,0,0,110,228.954v25.855a1.031,1.031,0,0,0,1.03,1.03l.02,0a322.665,322.665,0,0,0,57.373,5.432h.819a250.634,250.634,0,0,0,51.847-5.43l.024,0a1.031,1.031,0,0,0,1.03-1.03V206.289a1.031,1.031,0,0,0-1.03-1.03Z" transform="translate(-110 -205.26)" fill="#2e3346"/>
        <path id="Path_40" data-name="Path 40" d="M850.533,385.452a.68.68,0,1,0,0,1.361h17.06a.681.681,0,0,0,.022-1.361H850.533Z" transform="translate(-765.19 -364.832)" fill="#ffa64b"/>
        <path id="Path_129" data-name="Path 129" d="M1031.138,383.493a.134.134,0,0,0,0,.189l.575.575H1030.3a.134.134,0,1,0,0,.268h1.417l-.575.575a.134.134,0,0,0,.189.189l.8-.8a.134.134,0,0,0,0-.189l-.8-.8A.134.134,0,0,0,1031.138,383.493Z" transform="translate(-924.865 -363.063)" fill="#fff"/>
        <path id="Path_130" data-name="Path 130" d="M813.942,383.493a.134.134,0,0,1,0,.189l-.575.575h1.417a.134.134,0,0,1,0,.268h-1.417l.575.575a.134.134,0,0,1-.189.189l-.8-.8a.134.134,0,0,1,0-.189l.8-.8A.134.134,0,0,1,813.942,383.493Z" transform="translate(-732.474 -363.063)" fill="#fff"/>
        <g id="Group_22" data-name="Group 22" transform="translate(85.301 5.035)" opacity="0.4">
          <circle id="Ellipse_86" data-name="Ellipse 86" cx="0.731" cy="0.731" r="0.731" fill="#fff"/>
          <circle id="Ellipse_87" data-name="Ellipse 87" cx="0.731" cy="0.731" r="0.731" transform="translate(3.047)" fill="#fff"/>
          <circle id="Ellipse_88" data-name="Ellipse 88" cx="0.731" cy="0.731" r="0.731" transform="translate(6.093)" fill="#fff"/>
          <circle id="Ellipse_89" data-name="Ellipse 89" cx="0.731" cy="0.731" r="0.731" transform="translate(9.14)" fill="#fff"/>
          <circle id="Ellipse_90" data-name="Ellipse 90" cx="0.731" cy="0.731" r="0.731" transform="translate(12.187)" fill="#fff"/>
          <circle id="Ellipse_91" data-name="Ellipse 91" cx="0.731" cy="0.731" r="0.731" transform="translate(15.234)" fill="#fff"/>
          <circle id="Ellipse_92" data-name="Ellipse 92" cx="0.731" cy="0.731" r="0.731" transform="translate(18.28)" fill="#fff"/>
          <circle id="Ellipse_93" data-name="Ellipse 93" cx="0.731" cy="0.731" r="0.731" transform="translate(0 2.316)" fill="#fff"/>
          <circle id="Ellipse_94" data-name="Ellipse 94" cx="0.731" cy="0.731" r="0.731" transform="translate(3.047 2.316)" fill="#fff"/>
          <circle id="Ellipse_95" data-name="Ellipse 95" cx="0.731" cy="0.731" r="0.731" transform="translate(6.093 2.316)" fill="#fff"/>
          <circle id="Ellipse_96" data-name="Ellipse 96" cx="0.731" cy="0.731" r="0.731" transform="translate(9.14 2.316)" fill="#fff"/>
          <circle id="Ellipse_97" data-name="Ellipse 97" cx="0.731" cy="0.731" r="0.731" transform="translate(12.187 2.316)" fill="#fff"/>
          <circle id="Ellipse_98" data-name="Ellipse 98" cx="0.731" cy="0.731" r="0.731" transform="translate(15.234 2.316)" fill="#fff"/>
          <circle id="Ellipse_99" data-name="Ellipse 99" cx="0.731" cy="0.731" r="0.731" transform="translate(18.28 2.316)" fill="#fff"/>
          <circle id="Ellipse_100" data-name="Ellipse 100" cx="0.731" cy="0.731" r="0.731" transform="translate(0 4.631)" fill="#fff"/>
          <circle id="Ellipse_101" data-name="Ellipse 101" cx="0.731" cy="0.731" r="0.731" transform="translate(3.047 4.631)" fill="#fff"/>
          <circle id="Ellipse_102" data-name="Ellipse 102" cx="0.731" cy="0.731" r="0.731" transform="translate(6.093 4.631)" fill="#fff"/>
          <circle id="Ellipse_103" data-name="Ellipse 103" cx="0.731" cy="0.731" r="0.731" transform="translate(9.14 4.631)" fill="#fff"/>
          <circle id="Ellipse_104" data-name="Ellipse 104" cx="0.731" cy="0.731" r="0.731" transform="translate(12.187 4.631)" fill="#fff"/>
          <circle id="Ellipse_105" data-name="Ellipse 105" cx="0.731" cy="0.731" r="0.731" transform="translate(15.234 4.631)" fill="#fff"/>
          <circle id="Ellipse_106" data-name="Ellipse 106" cx="0.731" cy="0.731" r="0.731" transform="translate(18.28 4.631)" fill="#fff"/>
          <circle id="Ellipse_107" data-name="Ellipse 107" cx="0.731" cy="0.731" r="0.731" transform="translate(0 6.947)" fill="#fff"/>
          <circle id="Ellipse_108" data-name="Ellipse 108" cx="0.731" cy="0.731" r="0.731" transform="translate(3.047 6.947)" fill="#fff"/>
          <circle id="Ellipse_109" data-name="Ellipse 109" cx="0.731" cy="0.731" r="0.731" transform="translate(0 9.262)" fill="#fff"/>
          <circle id="Ellipse_110" data-name="Ellipse 110" cx="0.731" cy="0.731" r="0.731" transform="translate(3.047 9.262)" fill="#fff"/>
          <circle id="Ellipse_111" data-name="Ellipse 111" cx="0.731" cy="0.731" r="0.731" transform="translate(6.093 9.262)" fill="#fff"/>
          <circle id="Ellipse_112" data-name="Ellipse 112" cx="0.731" cy="0.731" r="0.731" transform="translate(6.093 6.947)" fill="#fff"/>
          <circle id="Ellipse_113" data-name="Ellipse 113" cx="0.731" cy="0.731" r="0.731" transform="translate(9.14 6.947)" fill="#fff"/>
          <circle id="Ellipse_114" data-name="Ellipse 114" cx="0.731" cy="0.731" r="0.731" transform="translate(12.187 6.947)" fill="#fff"/>
          <circle id="Ellipse_115" data-name="Ellipse 115" cx="0.731" cy="0.731" r="0.731" transform="translate(15.234 6.947)" fill="#fff"/>
          <circle id="Ellipse_116" data-name="Ellipse 116" cx="0.731" cy="0.731" r="0.731" transform="translate(18.28 6.947)" fill="#fff"/>
        </g>
        <path id="Path_131" data-name="Path 131" d="M738.921,518.246a4.036,4.036,0,1,1,4.036-4.036A4.036,4.036,0,0,1,738.921,518.246Zm0-7.844a3.807,3.807,0,1,0,3.807,3.807A3.807,3.807,0,0,0,738.921,510.4Z" transform="translate(-663.378 -475.282)" fill="#ffa64b"/>
        <path id="Path_132" data-name="Path 132" d="M756.736,530.09h-1.161v-1.161a.387.387,0,1,0-.774,0v1.161h-1.161a.387.387,0,1,0,0,.774H754.8v1.161a.387.387,0,0,0,.774,0v-1.161h1.161a.387.387,0,1,0,0-.774Z" transform="translate(-679.645 -491.549)" fill="#fff"/>
        <g id="Group_23" data-name="Group 23" transform="translate(5.607 27.938)" opacity="0.4">
          <circle id="Ellipse_117" data-name="Ellipse 117" cx="0.575" cy="0.575" r="0.575" transform="translate(0 14.372)" fill="#fff"/>
          <circle id="Ellipse_118" data-name="Ellipse 118" cx="0.575" cy="0.575" r="0.575" transform="translate(0 11.977)" fill="#fff"/>
          <circle id="Ellipse_119" data-name="Ellipse 119" cx="0.575" cy="0.575" r="0.575" transform="translate(0 9.582)" fill="#fff"/>
          <circle id="Ellipse_120" data-name="Ellipse 120" cx="0.575" cy="0.575" r="0.575" transform="translate(0 7.186)" fill="#fff"/>
          <circle id="Ellipse_121" data-name="Ellipse 121" cx="0.575" cy="0.575" r="0.575" transform="translate(0 4.791)" fill="#fff"/>
          <circle id="Ellipse_122" data-name="Ellipse 122" cx="0.575" cy="0.575" r="0.575" transform="translate(0 2.395)" fill="#fff"/>
          <circle id="Ellipse_123" data-name="Ellipse 123" cx="0.575" cy="0.575" r="0.575" fill="#fff"/>
          <circle id="Ellipse_124" data-name="Ellipse 124" cx="0.575" cy="0.575" r="0.575" transform="translate(1.821 14.372)" fill="#fff"/>
          <circle id="Ellipse_125" data-name="Ellipse 125" cx="0.575" cy="0.575" r="0.575" transform="translate(1.821 11.977)" fill="#fff"/>
          <circle id="Ellipse_126" data-name="Ellipse 126" cx="0.575" cy="0.575" r="0.575" transform="translate(1.821 9.582)" fill="#fff"/>
          <circle id="Ellipse_127" data-name="Ellipse 127" cx="0.575" cy="0.575" r="0.575" transform="translate(1.821 7.186)" fill="#fff"/>
          <circle id="Ellipse_128" data-name="Ellipse 128" cx="0.575" cy="0.575" r="0.575" transform="translate(1.821 4.791)" fill="#fff"/>
          <circle id="Ellipse_129" data-name="Ellipse 129" cx="0.575" cy="0.575" r="0.575" transform="translate(1.821 2.395)" fill="#fff"/>
          <circle id="Ellipse_130" data-name="Ellipse 130" cx="0.575" cy="0.575" r="0.575" transform="translate(1.821)" fill="#fff"/>
          <circle id="Ellipse_131" data-name="Ellipse 131" cx="0.575" cy="0.575" r="0.575" transform="translate(3.641 14.372)" fill="#fff"/>
          <circle id="Ellipse_132" data-name="Ellipse 132" cx="0.575" cy="0.575" r="0.575" transform="translate(3.641 11.977)" fill="#fff"/>
          <circle id="Ellipse_133" data-name="Ellipse 133" cx="0.575" cy="0.575" r="0.575" transform="translate(3.641 9.582)" fill="#fff"/>
          <circle id="Ellipse_134" data-name="Ellipse 134" cx="0.575" cy="0.575" r="0.575" transform="translate(3.641 7.186)" fill="#fff"/>
          <circle id="Ellipse_135" data-name="Ellipse 135" cx="0.575" cy="0.575" r="0.575" transform="translate(3.641 4.791)" fill="#fff"/>
          <circle id="Ellipse_136" data-name="Ellipse 136" cx="0.575" cy="0.575" r="0.575" transform="translate(3.641 2.395)" fill="#fff"/>
          <circle id="Ellipse_137" data-name="Ellipse 137" cx="0.575" cy="0.575" r="0.575" transform="translate(3.641)" fill="#fff"/>
          <circle id="Ellipse_138" data-name="Ellipse 138" cx="0.575" cy="0.575" r="0.575" transform="translate(5.462 14.372)" fill="#fff"/>
          <circle id="Ellipse_139" data-name="Ellipse 139" cx="0.575" cy="0.575" r="0.575" transform="translate(5.462 11.977)" fill="#fff"/>
          <circle id="Ellipse_140" data-name="Ellipse 140" cx="0.575" cy="0.575" r="0.575" transform="translate(7.282 14.372)" fill="#fff"/>
          <circle id="Ellipse_141" data-name="Ellipse 141" cx="0.575" cy="0.575" r="0.575" transform="translate(7.282 11.977)" fill="#fff"/>
          <circle id="Ellipse_142" data-name="Ellipse 142" cx="0.575" cy="0.575" r="0.575" transform="translate(7.282 9.582)" fill="#fff"/>
          <circle id="Ellipse_143" data-name="Ellipse 143" cx="0.575" cy="0.575" r="0.575" transform="translate(5.462 9.582)" fill="#fff"/>
          <circle id="Ellipse_144" data-name="Ellipse 144" cx="0.575" cy="0.575" r="0.575" transform="translate(5.462 7.186)" fill="#fff"/>
          <circle id="Ellipse_145" data-name="Ellipse 145" cx="0.575" cy="0.575" r="0.575" transform="translate(5.462 4.791)" fill="#fff"/>
          <circle id="Ellipse_146" data-name="Ellipse 146" cx="0.575" cy="0.575" r="0.575" transform="translate(5.462 2.395)" fill="#fff"/>
          <circle id="Ellipse_147" data-name="Ellipse 147" cx="0.575" cy="0.575" r="0.575" transform="translate(5.462)" fill="#fff"/>
        </g>
        <path id="Path_133" data-name="Path 133" d="M306.382,238.262H268.191a.708.708,0,0,0-.707.707v32.657a.708.708,0,0,0,.707.707h38.191a.708.708,0,0,0,.707-.707V238.969A.708.708,0,0,0,306.382,238.262Zm.424,33.365a.425.425,0,0,1-.424.425H268.191a.425.425,0,0,1-.424-.425V238.969a.425.425,0,0,1,.424-.425h38.191a.425.425,0,0,1,.424.425Z" transform="translate(-249.463 -234.486)" fill="#ffa64b"/>
        <path id="Path_134" data-name="Path 134" d="M306.114,462.972c0,.05,0,.1,0,.15a2.881,2.881,0,0,1-5.754,0c0-.049,0-.1,0-.15a2.881,2.881,0,1,1,5.762,0Z" transform="translate(-278.57 -430.93)" fill="#fff"/>
        <path id="Path_135" data-name="Path 135" d="M402.583,468.479H379.947a.48.48,0,1,0,0,.96h22.636a.48.48,0,1,0,0-.96Z" transform="translate(-348.631 -438.358)" fill="#ffa64b"/>
        <path id="Path_136" data-name="Path 136" d="M389.692,493.66h-9.74a.48.48,0,0,0,0,.959h9.74a.48.48,0,0,0,0-.959Z" transform="translate(-348.636 -460.658)" fill="#fff"/>
        <path id="Path_137" data-name="Path 137" d="M383.578,294H345.387a.979.979,0,0,1-.978-.978v-16.76a.979.979,0,0,1,.978-.978h38.191a.979.979,0,0,1,.978.978v16.76A.979.979,0,0,1,383.578,294Zm-38.191-18.373a.636.636,0,0,0-.635.635v16.76a.636.636,0,0,0,.635.635h38.191a.636.636,0,0,0,.635-.635v-16.76a.636.636,0,0,0-.635-.635Z" transform="translate(-317.585 -267.267)" fill="#fff"/>
        <path id="Path_138" data-name="Path 138" d="M417.208,328.7a.48.48,0,0,0,0,.96h22.636a.48.48,0,1,0,0-.96Z" transform="translate(-381.629 -314.574)" fill="#fff"/>
        <path id="Path_139" data-name="Path 139" d="M417.208,353.012a.48.48,0,0,0,0,.96h22.636a.48.48,0,1,0,0-.96Z" transform="translate(-381.629 -336.104)" fill="#fff"/>
        <path id="Path_140" data-name="Path 140" d="M417.208,377.029a.48.48,0,0,0,0,.96h9.74a.48.48,0,0,0,0-.96Z" transform="translate(-381.629 -357.374)" fill="#fff"/>
        <path id="Path_141" data-name="Path 141" d="M705.926,455.417,702.091,450l1.242.259a.172.172,0,0,0,.07-.336l-1.85-.385-.25,1.873a.172.172,0,0,0,.341.045l.167-1.258,3.836,5.414a.172.172,0,0,0,.28-.2Z" transform="translate(-633.637 -421.587)" fill="#fff"/>
        <path id="Path_142" data-name="Path 142" d="M344.766,578.427H317.5a.506.506,0,0,1-.5-.5v-6.763a.505.505,0,0,1,.5-.5h27.264a.505.505,0,0,1,.5.5v6.763A.506.506,0,0,1,344.766,578.427ZM317.5,570.856a.3.3,0,0,0-.3.3v6.763a.3.3,0,0,0,.3.3h27.264a.3.3,0,0,0,.3-.3v-6.763a.3.3,0,0,0-.3-.3Z" transform="translate(-293.31 -528.842)" fill="#ffa64b"/>
        <circle id="Ellipse_148" data-name="Ellipse 148" cx="2.057" cy="2.057" r="2.057" transform="translate(26.372 43.383)" fill="#fff"/>
        <path id="Path_143" data-name="Path 143" d="M397.285,590.368a.343.343,0,1,0,0,.686h16.16a.343.343,0,1,0,0-.686Z" transform="translate(-364.107 -546.299)" fill="#fff"/>
        <path id="Path_144" data-name="Path 144" d="M397.285,608.341a.343.343,0,1,0,0,.686h6.954a.343.343,0,1,0,0-.686Z" transform="translate(-364.107 -562.215)" fill="#fff"/>
        <path id="Path_145" data-name="Path 145" d="M870.117,428.016h12.117a.506.506,0,0,1,.5.5v12.62a.505.505,0,0,1-.5.5H870.117a.505.505,0,0,1-.5-.5v-12.62A.505.505,0,0,1,870.117,428.016Zm12.117,13.428a.3.3,0,0,0,.3-.3v-12.62a.3.3,0,0,0-.3-.3H870.117a.3.3,0,0,0-.3.3v12.62a.3.3,0,0,0,.3.3Z" transform="translate(-782.688 -402.525)" fill="#ffa64b"/>
        <path id="Path_146" data-name="Path 146" d="M900.889,519.075a.343.343,0,0,0,0-.686h-6.954a.343.343,0,0,0,0,.686Z" transform="translate(-803.924 -482.557)" fill="#fff"/>
        <path id="Path_147" data-name="Path 147" d="M900.889,501.426a.343.343,0,0,0,0-.686h-6.954a.343.343,0,0,0,0,.686Z" transform="translate(-803.924 -466.928)" fill="#fff"/>
        <path id="Path_148" data-name="Path 148" d="M910.273,450.758a2.158,2.158,0,1,1-2.158,2.158A2.158,2.158,0,0,1,910.273,450.758Z" transform="translate(-816.785 -422.665)" fill="#fff"/>
      </g>
      <g id="undraw_design_components_9vy6-2" data-name="undraw_design_components_9vy6" transform="matrix(0.857, 0, 0.072, 0.99, 482.368, 100.722)">
        <path id="Path_128-2" data-name="Path 128" d="M133.694,205.26a23.571,23.571,0,0,0-8.89,1.724l-.342.141A23.662,23.662,0,0,0,110,228.954v25.855a1.031,1.031,0,0,0,1.03,1.03l.02,0a322.665,322.665,0,0,0,57.373,5.432h.819a250.634,250.634,0,0,0,51.847-5.43l.024,0a1.031,1.031,0,0,0,1.03-1.03V206.289a1.031,1.031,0,0,0-1.03-1.03Z" transform="translate(-110 -205.26)" fill="#2e3346"/>
        <path id="Path_40-2" data-name="Path 40" d="M850.533,385.452a.68.68,0,1,0,0,1.361h17.06a.681.681,0,0,0,.022-1.361H850.533Z" transform="translate(-765.19 -364.832)" fill="#ffa64b"/>
        <path id="Path_129-2" data-name="Path 129" d="M1031.138,383.493a.134.134,0,0,0,0,.189l.575.575H1030.3a.134.134,0,1,0,0,.268h1.417l-.575.575a.134.134,0,0,0,.189.189l.8-.8a.134.134,0,0,0,0-.189l-.8-.8A.134.134,0,0,0,1031.138,383.493Z" transform="translate(-924.865 -363.063)" fill="#fff"/>
        <path id="Path_130-2" data-name="Path 130" d="M813.942,383.493a.134.134,0,0,1,0,.189l-.575.575h1.417a.134.134,0,0,1,0,.268h-1.417l.575.575a.134.134,0,0,1-.189.189l-.8-.8a.134.134,0,0,1,0-.189l.8-.8A.134.134,0,0,1,813.942,383.493Z" transform="translate(-732.474 -363.063)" fill="#fff"/>
        <g id="Group_22-2" data-name="Group 22" transform="translate(85.301 5.035)" opacity="0.4">
          <circle id="Ellipse_86-2" data-name="Ellipse 86" cx="0.731" cy="0.731" r="0.731" fill="#fff"/>
          <circle id="Ellipse_87-2" data-name="Ellipse 87" cx="0.731" cy="0.731" r="0.731" transform="translate(3.047)" fill="#fff"/>
          <circle id="Ellipse_88-2" data-name="Ellipse 88" cx="0.731" cy="0.731" r="0.731" transform="translate(6.093)" fill="#fff"/>
          <circle id="Ellipse_89-2" data-name="Ellipse 89" cx="0.731" cy="0.731" r="0.731" transform="translate(9.14)" fill="#fff"/>
          <circle id="Ellipse_90-2" data-name="Ellipse 90" cx="0.731" cy="0.731" r="0.731" transform="translate(12.187)" fill="#fff"/>
          <circle id="Ellipse_91-2" data-name="Ellipse 91" cx="0.731" cy="0.731" r="0.731" transform="translate(15.234)" fill="#fff"/>
          <circle id="Ellipse_92-2" data-name="Ellipse 92" cx="0.731" cy="0.731" r="0.731" transform="translate(18.28)" fill="#fff"/>
          <circle id="Ellipse_93-2" data-name="Ellipse 93" cx="0.731" cy="0.731" r="0.731" transform="translate(0 2.316)" fill="#fff"/>
          <circle id="Ellipse_94-2" data-name="Ellipse 94" cx="0.731" cy="0.731" r="0.731" transform="translate(3.047 2.316)" fill="#fff"/>
          <circle id="Ellipse_95-2" data-name="Ellipse 95" cx="0.731" cy="0.731" r="0.731" transform="translate(6.093 2.316)" fill="#fff"/>
          <circle id="Ellipse_96-2" data-name="Ellipse 96" cx="0.731" cy="0.731" r="0.731" transform="translate(9.14 2.316)" fill="#fff"/>
          <circle id="Ellipse_97-2" data-name="Ellipse 97" cx="0.731" cy="0.731" r="0.731" transform="translate(12.187 2.316)" fill="#fff"/>
          <circle id="Ellipse_98-2" data-name="Ellipse 98" cx="0.731" cy="0.731" r="0.731" transform="translate(15.234 2.316)" fill="#fff"/>
          <circle id="Ellipse_99-2" data-name="Ellipse 99" cx="0.731" cy="0.731" r="0.731" transform="translate(18.28 2.316)" fill="#fff"/>
          <circle id="Ellipse_100-2" data-name="Ellipse 100" cx="0.731" cy="0.731" r="0.731" transform="translate(0 4.631)" fill="#fff"/>
          <circle id="Ellipse_101-2" data-name="Ellipse 101" cx="0.731" cy="0.731" r="0.731" transform="translate(3.047 4.631)" fill="#fff"/>
          <circle id="Ellipse_102-2" data-name="Ellipse 102" cx="0.731" cy="0.731" r="0.731" transform="translate(6.093 4.631)" fill="#fff"/>
          <circle id="Ellipse_103-2" data-name="Ellipse 103" cx="0.731" cy="0.731" r="0.731" transform="translate(9.14 4.631)" fill="#fff"/>
          <circle id="Ellipse_104-2" data-name="Ellipse 104" cx="0.731" cy="0.731" r="0.731" transform="translate(12.187 4.631)" fill="#fff"/>
          <circle id="Ellipse_105-2" data-name="Ellipse 105" cx="0.731" cy="0.731" r="0.731" transform="translate(15.234 4.631)" fill="#fff"/>
          <circle id="Ellipse_106-2" data-name="Ellipse 106" cx="0.731" cy="0.731" r="0.731" transform="translate(18.28 4.631)" fill="#fff"/>
          <circle id="Ellipse_107-2" data-name="Ellipse 107" cx="0.731" cy="0.731" r="0.731" transform="translate(0 6.947)" fill="#fff"/>
          <circle id="Ellipse_108-2" data-name="Ellipse 108" cx="0.731" cy="0.731" r="0.731" transform="translate(3.047 6.947)" fill="#fff"/>
          <circle id="Ellipse_109-2" data-name="Ellipse 109" cx="0.731" cy="0.731" r="0.731" transform="translate(0 9.262)" fill="#fff"/>
          <circle id="Ellipse_110-2" data-name="Ellipse 110" cx="0.731" cy="0.731" r="0.731" transform="translate(3.047 9.262)" fill="#fff"/>
          <circle id="Ellipse_111-2" data-name="Ellipse 111" cx="0.731" cy="0.731" r="0.731" transform="translate(6.093 9.262)" fill="#fff"/>
          <circle id="Ellipse_112-2" data-name="Ellipse 112" cx="0.731" cy="0.731" r="0.731" transform="translate(6.093 6.947)" fill="#fff"/>
          <circle id="Ellipse_113-2" data-name="Ellipse 113" cx="0.731" cy="0.731" r="0.731" transform="translate(9.14 6.947)" fill="#fff"/>
          <circle id="Ellipse_114-2" data-name="Ellipse 114" cx="0.731" cy="0.731" r="0.731" transform="translate(12.187 6.947)" fill="#fff"/>
          <circle id="Ellipse_115-2" data-name="Ellipse 115" cx="0.731" cy="0.731" r="0.731" transform="translate(15.234 6.947)" fill="#fff"/>
          <circle id="Ellipse_116-2" data-name="Ellipse 116" cx="0.731" cy="0.731" r="0.731" transform="translate(18.28 6.947)" fill="#fff"/>
        </g>
        <path id="Path_131-2" data-name="Path 131" d="M738.921,518.246a4.036,4.036,0,1,1,4.036-4.036A4.036,4.036,0,0,1,738.921,518.246Zm0-7.844a3.807,3.807,0,1,0,3.807,3.807A3.807,3.807,0,0,0,738.921,510.4Z" transform="translate(-663.378 -475.282)" fill="#ffa64b"/>
        <path id="Path_132-2" data-name="Path 132" d="M756.736,530.09h-1.161v-1.161a.387.387,0,1,0-.774,0v1.161h-1.161a.387.387,0,1,0,0,.774H754.8v1.161a.387.387,0,0,0,.774,0v-1.161h1.161a.387.387,0,1,0,0-.774Z" transform="translate(-679.645 -491.549)" fill="#fff"/>
        <g id="Group_23-2" data-name="Group 23" transform="translate(5.607 27.938)" opacity="0.4">
          <circle id="Ellipse_117-2" data-name="Ellipse 117" cx="0.575" cy="0.575" r="0.575" transform="translate(0 14.372)" fill="#fff"/>
          <circle id="Ellipse_118-2" data-name="Ellipse 118" cx="0.575" cy="0.575" r="0.575" transform="translate(0 11.977)" fill="#fff"/>
          <circle id="Ellipse_119-2" data-name="Ellipse 119" cx="0.575" cy="0.575" r="0.575" transform="translate(0 9.582)" fill="#fff"/>
          <circle id="Ellipse_120-2" data-name="Ellipse 120" cx="0.575" cy="0.575" r="0.575" transform="translate(0 7.186)" fill="#fff"/>
          <circle id="Ellipse_121-2" data-name="Ellipse 121" cx="0.575" cy="0.575" r="0.575" transform="translate(0 4.791)" fill="#fff"/>
          <circle id="Ellipse_122-2" data-name="Ellipse 122" cx="0.575" cy="0.575" r="0.575" transform="translate(0 2.395)" fill="#fff"/>
          <circle id="Ellipse_123-2" data-name="Ellipse 123" cx="0.575" cy="0.575" r="0.575" fill="#fff"/>
          <circle id="Ellipse_124-2" data-name="Ellipse 124" cx="0.575" cy="0.575" r="0.575" transform="translate(1.821 14.372)" fill="#fff"/>
          <circle id="Ellipse_125-2" data-name="Ellipse 125" cx="0.575" cy="0.575" r="0.575" transform="translate(1.821 11.977)" fill="#fff"/>
          <circle id="Ellipse_126-2" data-name="Ellipse 126" cx="0.575" cy="0.575" r="0.575" transform="translate(1.821 9.582)" fill="#fff"/>
          <circle id="Ellipse_127-2" data-name="Ellipse 127" cx="0.575" cy="0.575" r="0.575" transform="translate(1.821 7.186)" fill="#fff"/>
          <circle id="Ellipse_128-2" data-name="Ellipse 128" cx="0.575" cy="0.575" r="0.575" transform="translate(1.821 4.791)" fill="#fff"/>
          <circle id="Ellipse_129-2" data-name="Ellipse 129" cx="0.575" cy="0.575" r="0.575" transform="translate(1.821 2.395)" fill="#fff"/>
          <circle id="Ellipse_130-2" data-name="Ellipse 130" cx="0.575" cy="0.575" r="0.575" transform="translate(1.821)" fill="#fff"/>
          <circle id="Ellipse_131-2" data-name="Ellipse 131" cx="0.575" cy="0.575" r="0.575" transform="translate(3.641 14.372)" fill="#fff"/>
          <circle id="Ellipse_132-2" data-name="Ellipse 132" cx="0.575" cy="0.575" r="0.575" transform="translate(3.641 11.977)" fill="#fff"/>
          <circle id="Ellipse_133-2" data-name="Ellipse 133" cx="0.575" cy="0.575" r="0.575" transform="translate(3.641 9.582)" fill="#fff"/>
          <circle id="Ellipse_134-2" data-name="Ellipse 134" cx="0.575" cy="0.575" r="0.575" transform="translate(3.641 7.186)" fill="#fff"/>
          <circle id="Ellipse_135-2" data-name="Ellipse 135" cx="0.575" cy="0.575" r="0.575" transform="translate(3.641 4.791)" fill="#fff"/>
          <circle id="Ellipse_136-2" data-name="Ellipse 136" cx="0.575" cy="0.575" r="0.575" transform="translate(3.641 2.395)" fill="#fff"/>
          <circle id="Ellipse_137-2" data-name="Ellipse 137" cx="0.575" cy="0.575" r="0.575" transform="translate(3.641)" fill="#fff"/>
          <circle id="Ellipse_138-2" data-name="Ellipse 138" cx="0.575" cy="0.575" r="0.575" transform="translate(5.462 14.372)" fill="#fff"/>
          <circle id="Ellipse_139-2" data-name="Ellipse 139" cx="0.575" cy="0.575" r="0.575" transform="translate(5.462 11.977)" fill="#fff"/>
          <circle id="Ellipse_140-2" data-name="Ellipse 140" cx="0.575" cy="0.575" r="0.575" transform="translate(7.282 14.372)" fill="#fff"/>
          <circle id="Ellipse_141-2" data-name="Ellipse 141" cx="0.575" cy="0.575" r="0.575" transform="translate(7.282 11.977)" fill="#fff"/>
          <circle id="Ellipse_142-2" data-name="Ellipse 142" cx="0.575" cy="0.575" r="0.575" transform="translate(7.282 9.582)" fill="#fff"/>
          <circle id="Ellipse_143-2" data-name="Ellipse 143" cx="0.575" cy="0.575" r="0.575" transform="translate(5.462 9.582)" fill="#fff"/>
          <circle id="Ellipse_144-2" data-name="Ellipse 144" cx="0.575" cy="0.575" r="0.575" transform="translate(5.462 7.186)" fill="#fff"/>
          <circle id="Ellipse_145-2" data-name="Ellipse 145" cx="0.575" cy="0.575" r="0.575" transform="translate(5.462 4.791)" fill="#fff"/>
          <circle id="Ellipse_146-2" data-name="Ellipse 146" cx="0.575" cy="0.575" r="0.575" transform="translate(5.462 2.395)" fill="#fff"/>
          <circle id="Ellipse_147-2" data-name="Ellipse 147" cx="0.575" cy="0.575" r="0.575" transform="translate(5.462)" fill="#fff"/>
        </g>
        <path id="Path_133-2" data-name="Path 133" d="M306.382,238.262H268.191a.708.708,0,0,0-.707.707v32.657a.708.708,0,0,0,.707.707h38.191a.708.708,0,0,0,.707-.707V238.969A.708.708,0,0,0,306.382,238.262Zm.424,33.365a.425.425,0,0,1-.424.425H268.191a.425.425,0,0,1-.424-.425V238.969a.425.425,0,0,1,.424-.425h38.191a.425.425,0,0,1,.424.425Z" transform="translate(-249.463 -251.943)" fill="#ffa64b"/>
        <path id="Path_134-2" data-name="Path 134" d="M306.114,462.972c0,.05,0,.1,0,.15a2.881,2.881,0,0,1-5.754,0c0-.049,0-.1,0-.15a2.881,2.881,0,1,1,5.762,0Z" transform="translate(-278.57 -448.388)" fill="#fff"/>
        <path id="Path_135-2" data-name="Path 135" d="M402.583,468.479H379.947a.48.48,0,1,0,0,.96h22.636a.48.48,0,1,0,0-.96Z" transform="translate(-308.298 -486.055)" fill="#ffa64b"/>
        <path id="Path_136-2" data-name="Path 136" d="M389.692,493.66h-9.74a.48.48,0,0,0,0,.959h9.74a.48.48,0,0,0,0-.959Z" transform="translate(-308.303 -508.354)" fill="#2e3346"/>
        <path id="Path_137-2" data-name="Path 137" d="M383.578,294H345.387a.979.979,0,0,1-.978-.978v-16.76a.979.979,0,0,1,.978-.978h38.191a.979.979,0,0,1,.978.978v16.76A.979.979,0,0,1,383.578,294Zm-38.191-18.373a.636.636,0,0,0-.635.635v16.76a.636.636,0,0,0,.635.635h38.191a.636.636,0,0,0,.635-.635v-16.76a.636.636,0,0,0-.635-.635Z" transform="translate(-277.252 -297.507)" fill="#2e3346"/>
        <path id="Path_138-2" data-name="Path 138" d="M417.208,328.7a.48.48,0,0,0,0,.96h22.636a.48.48,0,1,0,0-.96Z" transform="translate(-341.295 -344.813)" fill="#2e3346"/>
        <path id="Path_139-2" data-name="Path 139" d="M417.208,353.012a.48.48,0,0,0,0,.96h22.636a.48.48,0,1,0,0-.96Z" transform="translate(-341.295 -366.343)" fill="#2e3346"/>
        <path id="Path_140-2" data-name="Path 140" d="M417.208,377.029a.48.48,0,0,0,0,.96h9.74a.48.48,0,0,0,0-.96Z" transform="translate(-341.295 -387.613)" fill="#2e3346"/>
        <path id="Path_141-2" data-name="Path 141" d="M705.926,455.417,702.091,450l1.242.259a.172.172,0,0,0,.07-.336l-1.85-.385-.25,1.873a.172.172,0,0,0,.341.045l.167-1.258,3.836,5.414a.172.172,0,0,0,.28-.2Z" transform="translate(-633.637 -421.587)" fill="#fff"/>
        <path id="Path_142-2" data-name="Path 142" d="M344.766,578.427H317.5a.506.506,0,0,1-.5-.5v-6.763a.505.505,0,0,1,.5-.5h27.264a.505.505,0,0,1,.5.5v6.763A.506.506,0,0,1,344.766,578.427ZM317.5,570.856a.3.3,0,0,0-.3.3v6.763a.3.3,0,0,0,.3.3h27.264a.3.3,0,0,0,.3-.3v-6.763a.3.3,0,0,0-.3-.3Z" transform="translate(-293.31 -528.842)" fill="#ffa64b"/>
        <circle id="Ellipse_148-2" data-name="Ellipse 148" cx="2.057" cy="2.057" r="2.057" transform="translate(26.372 43.383)" fill="#fff" stroke="#2e3346" stroke-width="1"/>
        <path id="Path_143-2" data-name="Path 143" d="M397.285,590.368a.343.343,0,1,0,0,.686h16.16a.343.343,0,1,0,0-.686Z" transform="translate(-364.107 -546.299)" fill="#fff" stroke="#2e3346" stroke-width="1"/>
        <path id="Path_144-2" data-name="Path 144" d="M397.285,608.341a.343.343,0,1,0,0,.686h6.954a.343.343,0,1,0,0-.686Z" transform="translate(-364.107 -562.215)" fill="#fff" stroke="#2e3346" stroke-width="1"/>
        <path id="Path_145-2" data-name="Path 145" d="M870.117,428.016h12.117a.506.506,0,0,1,.5.5v12.62a.505.505,0,0,1-.5.5H870.117a.505.505,0,0,1-.5-.5v-12.62A.505.505,0,0,1,870.117,428.016Zm12.117,13.428a.3.3,0,0,0,.3-.3v-12.62a.3.3,0,0,0-.3-.3H870.117a.3.3,0,0,0-.3.3v12.62a.3.3,0,0,0,.3.3Z" transform="translate(-782.688 -402.525)" fill="#ffa64b"/>
        <path id="Path_146-2" data-name="Path 146" d="M900.889,519.075a.343.343,0,0,0,0-.686h-6.954a.343.343,0,0,0,0,.686Z" transform="translate(-803.924 -482.557)" fill="#fff"/>
        <path id="Path_147-2" data-name="Path 147" d="M900.889,501.426a.343.343,0,0,0,0-.686h-6.954a.343.343,0,0,0,0,.686Z" transform="translate(-803.924 -466.928)" fill="#fff"/>
        <path id="Path_148-2" data-name="Path 148" d="M910.273,450.758a2.158,2.158,0,1,1-2.158,2.158A2.158,2.158,0,0,1,910.273,450.758Z" transform="translate(-816.785 -422.665)" fill="#fff"/>
      </g>
      <g id="undraw_design_components_9vy6-3" data-name="undraw_design_components_9vy6" transform="translate(304.912 115.684)">
        <path id="Path_128-3" data-name="Path 128" d="M133.694,205.26a23.571,23.571,0,0,0-8.89,1.724l-.342.141A23.662,23.662,0,0,0,110,228.954v25.855a1.031,1.031,0,0,0,1.03,1.03l.02,0a322.665,322.665,0,0,0,57.373,5.432h.819a250.634,250.634,0,0,0,51.847-5.43l.024,0a1.031,1.031,0,0,0,1.03-1.03V206.289a1.031,1.031,0,0,0-1.03-1.03Z" transform="translate(-110 -205.26)" fill="none" stroke="#2e3346" stroke-width="1"/>
        <path id="Path_40-3" data-name="Path 40" d="M850.533,385.452a.68.68,0,1,0,0,1.361h17.06a.681.681,0,0,0,.022-1.361H850.533Z" transform="translate(-765.19 -364.832)" fill="none" stroke="#2e3346" stroke-width="1"/>
        <path id="Path_129-3" data-name="Path 129" d="M1031.138,383.493a.134.134,0,0,0,0,.189l.575.575H1030.3a.134.134,0,1,0,0,.268h1.417l-.575.575a.134.134,0,0,0,.189.189l.8-.8a.134.134,0,0,0,0-.189l-.8-.8A.134.134,0,0,0,1031.138,383.493Z" transform="translate(-924.865 -363.063)" fill="#fff"/>
        <path id="Path_130-3" data-name="Path 130" d="M813.942,383.493a.134.134,0,0,1,0,.189l-.575.575h1.417a.134.134,0,0,1,0,.268h-1.417l.575.575a.134.134,0,0,1-.189.189l-.8-.8a.134.134,0,0,1,0-.189l.8-.8A.134.134,0,0,1,813.942,383.493Z" transform="translate(-732.474 -363.063)" fill="#fff"/>
        <g id="Group_22-3" data-name="Group 22" transform="translate(85.301 5.035)" opacity="0.4">
          <circle id="Ellipse_86-3" data-name="Ellipse 86" cx="0.731" cy="0.731" r="0.731" fill="#fff"/>
          <circle id="Ellipse_87-3" data-name="Ellipse 87" cx="0.731" cy="0.731" r="0.731" transform="translate(3.047)" fill="#fff"/>
          <circle id="Ellipse_88-3" data-name="Ellipse 88" cx="0.731" cy="0.731" r="0.731" transform="translate(6.093)" fill="#fff"/>
          <circle id="Ellipse_89-3" data-name="Ellipse 89" cx="0.731" cy="0.731" r="0.731" transform="translate(9.14)" fill="#fff"/>
          <circle id="Ellipse_90-3" data-name="Ellipse 90" cx="0.731" cy="0.731" r="0.731" transform="translate(12.187)" fill="#fff"/>
          <circle id="Ellipse_91-3" data-name="Ellipse 91" cx="0.731" cy="0.731" r="0.731" transform="translate(15.234)" fill="#fff"/>
          <circle id="Ellipse_92-3" data-name="Ellipse 92" cx="0.731" cy="0.731" r="0.731" transform="translate(18.28)" fill="#fff"/>
          <circle id="Ellipse_93-3" data-name="Ellipse 93" cx="0.731" cy="0.731" r="0.731" transform="translate(0 2.316)" fill="#fff"/>
          <circle id="Ellipse_94-3" data-name="Ellipse 94" cx="0.731" cy="0.731" r="0.731" transform="translate(3.047 2.316)" fill="#fff"/>
          <circle id="Ellipse_95-3" data-name="Ellipse 95" cx="0.731" cy="0.731" r="0.731" transform="translate(6.093 2.316)" fill="#fff"/>
          <circle id="Ellipse_96-3" data-name="Ellipse 96" cx="0.731" cy="0.731" r="0.731" transform="translate(9.14 2.316)" fill="#fff"/>
          <circle id="Ellipse_97-3" data-name="Ellipse 97" cx="0.731" cy="0.731" r="0.731" transform="translate(12.187 2.316)" fill="#fff"/>
          <circle id="Ellipse_98-3" data-name="Ellipse 98" cx="0.731" cy="0.731" r="0.731" transform="translate(15.234 2.316)" fill="#fff"/>
          <circle id="Ellipse_99-3" data-name="Ellipse 99" cx="0.731" cy="0.731" r="0.731" transform="translate(18.28 2.316)" fill="#fff"/>
          <circle id="Ellipse_100-3" data-name="Ellipse 100" cx="0.731" cy="0.731" r="0.731" transform="translate(0 4.631)" fill="#fff"/>
          <circle id="Ellipse_101-3" data-name="Ellipse 101" cx="0.731" cy="0.731" r="0.731" transform="translate(3.047 4.631)" fill="#fff"/>
          <circle id="Ellipse_102-3" data-name="Ellipse 102" cx="0.731" cy="0.731" r="0.731" transform="translate(6.093 4.631)" fill="#fff"/>
          <circle id="Ellipse_103-3" data-name="Ellipse 103" cx="0.731" cy="0.731" r="0.731" transform="translate(9.14 4.631)" fill="#fff"/>
          <circle id="Ellipse_104-3" data-name="Ellipse 104" cx="0.731" cy="0.731" r="0.731" transform="translate(12.187 4.631)" fill="#fff"/>
          <circle id="Ellipse_105-3" data-name="Ellipse 105" cx="0.731" cy="0.731" r="0.731" transform="translate(15.234 4.631)" fill="#fff"/>
          <circle id="Ellipse_106-3" data-name="Ellipse 106" cx="0.731" cy="0.731" r="0.731" transform="translate(18.28 4.631)" fill="#fff"/>
          <circle id="Ellipse_107-3" data-name="Ellipse 107" cx="0.731" cy="0.731" r="0.731" transform="translate(0 6.947)" fill="#fff"/>
          <circle id="Ellipse_108-3" data-name="Ellipse 108" cx="0.731" cy="0.731" r="0.731" transform="translate(3.047 6.947)" fill="#fff"/>
          <circle id="Ellipse_109-3" data-name="Ellipse 109" cx="0.731" cy="0.731" r="0.731" transform="translate(0 9.262)" fill="#fff"/>
          <circle id="Ellipse_110-3" data-name="Ellipse 110" cx="0.731" cy="0.731" r="0.731" transform="translate(3.047 9.262)" fill="#fff"/>
          <circle id="Ellipse_111-3" data-name="Ellipse 111" cx="0.731" cy="0.731" r="0.731" transform="translate(6.093 9.262)" fill="#fff"/>
          <circle id="Ellipse_112-3" data-name="Ellipse 112" cx="0.731" cy="0.731" r="0.731" transform="translate(6.093 6.947)" fill="#fff"/>
          <circle id="Ellipse_113-3" data-name="Ellipse 113" cx="0.731" cy="0.731" r="0.731" transform="translate(9.14 6.947)" fill="#fff"/>
          <circle id="Ellipse_114-3" data-name="Ellipse 114" cx="0.731" cy="0.731" r="0.731" transform="translate(12.187 6.947)" fill="#fff"/>
          <circle id="Ellipse_115-3" data-name="Ellipse 115" cx="0.731" cy="0.731" r="0.731" transform="translate(15.234 6.947)" fill="#fff"/>
          <circle id="Ellipse_116-3" data-name="Ellipse 116" cx="0.731" cy="0.731" r="0.731" transform="translate(18.28 6.947)" fill="#fff"/>
        </g>
        <path id="Path_131-3" data-name="Path 131" d="M738.921,518.246a4.036,4.036,0,1,1,4.036-4.036A4.036,4.036,0,0,1,738.921,518.246Zm0-7.844a3.807,3.807,0,1,0,3.807,3.807A3.807,3.807,0,0,0,738.921,510.4Z" transform="translate(-663.378 -475.282)" fill="none" stroke="#2e3346" stroke-width="1"/>
        <path id="Path_132-3" data-name="Path 132" d="M756.736,530.09h-1.161v-1.161a.387.387,0,1,0-.774,0v1.161h-1.161a.387.387,0,1,0,0,.774H754.8v1.161a.387.387,0,0,0,.774,0v-1.161h1.161a.387.387,0,1,0,0-.774Z" transform="translate(-679.645 -491.549)" fill="#fff"/>
        <g id="Group_23-3" data-name="Group 23" transform="translate(5.607 27.938)" opacity="0.4">
          <circle id="Ellipse_117-3" data-name="Ellipse 117" cx="0.575" cy="0.575" r="0.575" transform="translate(0 14.372)" fill="#fff"/>
          <circle id="Ellipse_118-3" data-name="Ellipse 118" cx="0.575" cy="0.575" r="0.575" transform="translate(0 11.977)" fill="#fff"/>
          <circle id="Ellipse_119-3" data-name="Ellipse 119" cx="0.575" cy="0.575" r="0.575" transform="translate(0 9.582)" fill="#fff"/>
          <circle id="Ellipse_120-3" data-name="Ellipse 120" cx="0.575" cy="0.575" r="0.575" transform="translate(0 7.186)" fill="#fff"/>
          <circle id="Ellipse_121-3" data-name="Ellipse 121" cx="0.575" cy="0.575" r="0.575" transform="translate(0 4.791)" fill="#fff"/>
          <circle id="Ellipse_122-3" data-name="Ellipse 122" cx="0.575" cy="0.575" r="0.575" transform="translate(0 2.395)" fill="#fff"/>
          <circle id="Ellipse_123-3" data-name="Ellipse 123" cx="0.575" cy="0.575" r="0.575" fill="#fff"/>
          <circle id="Ellipse_124-3" data-name="Ellipse 124" cx="0.575" cy="0.575" r="0.575" transform="translate(1.821 14.372)" fill="#fff"/>
          <circle id="Ellipse_125-3" data-name="Ellipse 125" cx="0.575" cy="0.575" r="0.575" transform="translate(1.821 11.977)" fill="#fff"/>
          <circle id="Ellipse_126-3" data-name="Ellipse 126" cx="0.575" cy="0.575" r="0.575" transform="translate(1.821 9.582)" fill="#fff"/>
          <circle id="Ellipse_127-3" data-name="Ellipse 127" cx="0.575" cy="0.575" r="0.575" transform="translate(1.821 7.186)" fill="#fff"/>
          <circle id="Ellipse_128-3" data-name="Ellipse 128" cx="0.575" cy="0.575" r="0.575" transform="translate(1.821 4.791)" fill="#fff"/>
          <circle id="Ellipse_129-3" data-name="Ellipse 129" cx="0.575" cy="0.575" r="0.575" transform="translate(1.821 2.395)" fill="#fff"/>
          <circle id="Ellipse_130-3" data-name="Ellipse 130" cx="0.575" cy="0.575" r="0.575" transform="translate(1.821)" fill="#fff"/>
          <circle id="Ellipse_131-3" data-name="Ellipse 131" cx="0.575" cy="0.575" r="0.575" transform="translate(3.641 14.372)" fill="#fff"/>
          <circle id="Ellipse_132-3" data-name="Ellipse 132" cx="0.575" cy="0.575" r="0.575" transform="translate(3.641 11.977)" fill="#fff"/>
          <circle id="Ellipse_133-3" data-name="Ellipse 133" cx="0.575" cy="0.575" r="0.575" transform="translate(3.641 9.582)" fill="#fff"/>
          <circle id="Ellipse_134-3" data-name="Ellipse 134" cx="0.575" cy="0.575" r="0.575" transform="translate(3.641 7.186)" fill="#fff"/>
          <circle id="Ellipse_135-3" data-name="Ellipse 135" cx="0.575" cy="0.575" r="0.575" transform="translate(3.641 4.791)" fill="#fff"/>
          <circle id="Ellipse_136-3" data-name="Ellipse 136" cx="0.575" cy="0.575" r="0.575" transform="translate(3.641 2.395)" fill="#fff"/>
          <circle id="Ellipse_137-3" data-name="Ellipse 137" cx="0.575" cy="0.575" r="0.575" transform="translate(3.641)" fill="#fff"/>
          <circle id="Ellipse_138-3" data-name="Ellipse 138" cx="0.575" cy="0.575" r="0.575" transform="translate(5.462 14.372)" fill="#fff"/>
          <circle id="Ellipse_139-3" data-name="Ellipse 139" cx="0.575" cy="0.575" r="0.575" transform="translate(5.462 11.977)" fill="#fff"/>
          <circle id="Ellipse_140-3" data-name="Ellipse 140" cx="0.575" cy="0.575" r="0.575" transform="translate(7.282 14.372)" fill="#fff"/>
          <circle id="Ellipse_141-3" data-name="Ellipse 141" cx="0.575" cy="0.575" r="0.575" transform="translate(7.282 11.977)" fill="#fff"/>
          <circle id="Ellipse_142-3" data-name="Ellipse 142" cx="0.575" cy="0.575" r="0.575" transform="translate(7.282 9.582)" fill="#fff"/>
          <circle id="Ellipse_143-3" data-name="Ellipse 143" cx="0.575" cy="0.575" r="0.575" transform="translate(5.462 9.582)" fill="#fff"/>
          <circle id="Ellipse_144-3" data-name="Ellipse 144" cx="0.575" cy="0.575" r="0.575" transform="translate(5.462 7.186)" fill="#fff"/>
          <circle id="Ellipse_145-3" data-name="Ellipse 145" cx="0.575" cy="0.575" r="0.575" transform="translate(5.462 4.791)" fill="#fff"/>
          <circle id="Ellipse_146-3" data-name="Ellipse 146" cx="0.575" cy="0.575" r="0.575" transform="translate(5.462 2.395)" fill="#fff"/>
          <circle id="Ellipse_147-3" data-name="Ellipse 147" cx="0.575" cy="0.575" r="0.575" transform="translate(5.462)" fill="#fff"/>
        </g>
        <path id="Path_133-3" data-name="Path 133" d="M306.382,238.262H268.191a.708.708,0,0,0-.707.707v32.657a.708.708,0,0,0,.707.707h38.191a.708.708,0,0,0,.707-.707V238.969A.708.708,0,0,0,306.382,238.262Zm.424,33.365a.425.425,0,0,1-.424.425H268.191a.425.425,0,0,1-.424-.425V238.969a.425.425,0,0,1,.424-.425h38.191a.425.425,0,0,1,.424.425Z" transform="translate(-249.463 -251.943)" fill="none" stroke="#2e3346" stroke-width="1"/>
        <path id="Path_134-3" data-name="Path 134" d="M306.114,462.972c0,.05,0,.1,0,.15a2.881,2.881,0,0,1-5.754,0c0-.049,0-.1,0-.15a2.881,2.881,0,1,1,5.762,0Z" transform="translate(-278.57 -448.388)" fill="#fff"/>
        <path id="Path_135-3" data-name="Path 135" d="M402.583,468.479H379.947a.48.48,0,1,0,0,.96h22.636a.48.48,0,1,0,0-.96Z" transform="translate(-308.298 -486.055)" fill="#ffa64b"/>
        <path id="Path_136-3" data-name="Path 136" d="M389.692,493.66h-9.74a.48.48,0,0,0,0,.959h9.74a.48.48,0,0,0,0-.959Z" transform="translate(-308.303 -508.354)" fill="#2e3346"/>
        <path id="Path_137-3" data-name="Path 137" d="M383.578,294H345.387a.979.979,0,0,1-.978-.978v-16.76a.979.979,0,0,1,.978-.978h38.191a.979.979,0,0,1,.978.978v16.76A.979.979,0,0,1,383.578,294Zm-38.191-18.373a.636.636,0,0,0-.635.635v16.76a.636.636,0,0,0,.635.635h38.191a.636.636,0,0,0,.635-.635v-16.76a.636.636,0,0,0-.635-.635Z" transform="translate(-277.252 -297.507)" fill="#2e3346"/>
        <path id="Path_138-3" data-name="Path 138" d="M417.208,328.7a.48.48,0,0,0,0,.96h22.636a.48.48,0,1,0,0-.96Z" transform="translate(-341.295 -344.813)" fill="#2e3346"/>
        <path id="Path_139-3" data-name="Path 139" d="M417.208,353.012a.48.48,0,0,0,0,.96h22.636a.48.48,0,1,0,0-.96Z" transform="translate(-341.295 -366.343)" fill="#2e3346"/>
        <path id="Path_140-3" data-name="Path 140" d="M417.208,377.029a.48.48,0,0,0,0,.96h9.74a.48.48,0,0,0,0-.96Z" transform="translate(-341.295 -387.613)" fill="#2e3346"/>
        <path id="Path_141-3" data-name="Path 141" d="M705.926,455.417,702.091,450l1.242.259a.172.172,0,0,0,.07-.336l-1.85-.385-.25,1.873a.172.172,0,0,0,.341.045l.167-1.258,3.836,5.414a.172.172,0,0,0,.28-.2Z" transform="translate(-633.637 -421.587)" fill="#fff"/>
        <path id="Path_142-3" data-name="Path 142" d="M344.766,578.427H317.5a.506.506,0,0,1-.5-.5v-6.763a.505.505,0,0,1,.5-.5h27.264a.505.505,0,0,1,.5.5v6.763A.506.506,0,0,1,344.766,578.427ZM317.5,570.856a.3.3,0,0,0-.3.3v6.763a.3.3,0,0,0,.3.3h27.264a.3.3,0,0,0,.3-.3v-6.763a.3.3,0,0,0-.3-.3Z" transform="translate(-293.31 -528.842)" fill="#ffa64b"/>
        <circle id="Ellipse_148-3" data-name="Ellipse 148" cx="2.057" cy="2.057" r="2.057" transform="translate(26.372 43.383)" fill="#fff" stroke="#2e3346" stroke-width="1"/>
        <path id="Path_143-3" data-name="Path 143" d="M397.285,590.368a.343.343,0,1,0,0,.686h16.16a.343.343,0,1,0,0-.686Z" transform="translate(-364.107 -546.299)" fill="#fff" stroke="#2e3346" stroke-width="1"/>
        <path id="Path_144-3" data-name="Path 144" d="M397.285,608.341a.343.343,0,1,0,0,.686h6.954a.343.343,0,1,0,0-.686Z" transform="translate(-364.107 -562.215)" fill="#fff" stroke="#2e3346" stroke-width="1"/>
        <path id="Path_145-3" data-name="Path 145" d="M870.117,428.016h12.117a.506.506,0,0,1,.5.5v12.62a.505.505,0,0,1-.5.5H870.117a.505.505,0,0,1-.5-.5v-12.62A.505.505,0,0,1,870.117,428.016Zm12.117,13.428a.3.3,0,0,0,.3-.3v-12.62a.3.3,0,0,0-.3-.3H870.117a.3.3,0,0,0-.3.3v12.62a.3.3,0,0,0,.3.3Z" transform="translate(-782.688 -402.525)" fill="#ffa64b"/>
        <path id="Path_146-3" data-name="Path 146" d="M900.889,519.075a.343.343,0,0,0,0-.686h-6.954a.343.343,0,0,0,0,.686Z" transform="translate(-803.924 -482.557)" fill="#fff"/>
        <path id="Path_147-3" data-name="Path 147" d="M900.889,501.426a.343.343,0,0,0,0-.686h-6.954a.343.343,0,0,0,0,.686Z" transform="translate(-803.924 -466.928)" fill="#fff"/>
        <path id="Path_148-3" data-name="Path 148" d="M910.273,450.758a2.158,2.158,0,1,1-2.158,2.158A2.158,2.158,0,0,1,910.273,450.758Z" transform="translate(-816.785 -422.665)" fill="#fff"/>
      </g>
      <path id="Path_180" data-name="Path 180" d="M383.74,627.358a.92.92,0,0,1,.074-.259c.741-2.66,2.06-7.156,3.045-10.75.126-.445.244-.882.356-1.3,1.089-4.052,3.208-13.543,4.386-19.462.415-2.082.741-3.7.807-4.519.148-1.252,2.378-6.608,4.9-12.765,1.771-4.327,3.7-9.053,5.119-13.039a45.47,45.47,0,0,0,2.171-7.3,3.777,3.777,0,0,0,0-1.578,10.884,10.884,0,0,1-.356-2.593h0c-.17-4.593,1.2-11.853,3.319-14.9,2.593-3.7,4.445-17.528,4.445-17.528s3.838.556,4.445-2.615a4.558,4.558,0,0,0,.074-1.037,5.492,5.492,0,0,0-.067-.822c-.659-4.623,10.905-9.542,17.41-10.6a14.561,14.561,0,0,1,2.223-.207,20.181,20.181,0,0,0,4.63-1.067q1.037-.319,2.223-.741c2.726-.919,5.986-2.134,9.446-3.467,13.009-5.045,28.759-11.853,28.759-11.853.111-.526.237-1.03.378-1.526a20.529,20.529,0,0,1,12.113-14.024h0v-1.482c0-2.556-.111-5.186-.222-7.808,0-.511-.044-1.022-.074-1.534v-.837c0-.519-.052-1.037-.081-1.548l-.133-.1a12.155,12.155,0,0,1-2.889-3.112,11.309,11.309,0,0,1-1.052-2.223c-.926-2.511-1.141-5.312-1.763-7.964l-.133-.548a62.231,62.231,0,0,0-2.963-7.838c-1.637-4.015-2.9-8.149-4.149-12.335q-1.141-3.8-2.3-7.616l-1.171-3.882c-.222-.741-.445-1.482-.615-2.223h0a9.843,9.843,0,0,1-.193-1.037h0a7.409,7.409,0,0,1,.178-3.415,23.777,23.777,0,0,1,.978-2.223,5.834,5.834,0,0,0,.37-1.022h0a2.241,2.241,0,0,0,.059-.237,4.186,4.186,0,0,0,.082-.8,13.678,13.678,0,0,0-.385-2.882.052.052,0,0,1,0-.037,1.894,1.894,0,0,0-.037-.2,18.891,18.891,0,0,1-.267-2.223,21.077,21.077,0,0,1,2.571-11.535l.141-.267a18.683,18.683,0,0,1,1.363-2.06h0a10.407,10.407,0,0,1,.741-.9c-1.037.993-2.741.556-3.7-.511a2.676,2.676,0,0,1-.407-.556,2.828,2.828,0,0,1-.17-.333c-.037-.089-.067-.185-.1-.281-.519-1.815.385-3.749,1.571-5.223a13.7,13.7,0,0,1,4.252-3.482h0a2.853,2.853,0,0,1,.3-.156,12.68,12.68,0,0,1,1.956-.785h0a11.157,11.157,0,0,1,1.208-.326l-2.749-.252-1.111-.1a10.735,10.735,0,0,1,9.631-8.083h.8a8.7,8.7,0,0,1,1.163.1,3.29,3.29,0,0,1-1.963-3.208,10.676,10.676,0,0,0,6.808,2.267h.282a22.237,22.237,0,0,1-.252-2.422h0a24.579,24.579,0,0,1,0-3.3,6.253,6.253,0,0,0,5.023,1.674l-1.541-2.148a7.03,7.03,0,0,0,4.86,1.519l.356-.037a5.188,5.188,0,0,0,.882-.17h.067c-.141-.178-.267-.363-.393-.556l-.044-.089a7.166,7.166,0,0,1-.741-1.548,4.875,4.875,0,0,1-.178-.645h0a6.482,6.482,0,0,1,.333-4.038c2.393,2,5.015,4.734,8.149,2.667s3.237-5.86,8.149-5.475a7.557,7.557,0,0,1,6.23,4.534,5,5,0,0,1,5.682-1.3,5.075,5.075,0,0,1,2.874,5.1c2.037-.511,4.23-1.015,6.186-.244s3.215,3.267,2.1,4.934a1.056,1.056,0,0,1-.1.148c-.911,1.178-2.926,1.822-2.711,3.3l.311.222.963.7q5.667,4.089,11.038,8.594c1.837,1.541,3.793,3.393,3.919,5.8a6.4,6.4,0,0,1-.178,1.756h0c-.118.578-.281,1.156-.407,1.734a14.453,14.453,0,0,0-.252,4.482h0c.052.437.119.867.2,1.3,1.133,5.727,5.712,10.453,6.164,16.3v.415a13.172,13.172,0,0,1-.052,1.874c-.341,3.556-1.985,6.971-3.319,10.372-.081.207-.163.415-.237.622a103.214,103.214,0,0,0-5.186,20.862A74.243,74.243,0,0,1,555.874,447a19.8,19.8,0,0,1-3.771,7.727,12.016,12.016,0,0,1-2.489,2.223A13.838,13.838,0,0,1,547.65,458v.044c.081.452.148.9.23,1.356.044.237.081.474.126.741h0a.1.1,0,0,0,0,.044c.622,3.5,1.333,6.934,2.082,10.194l.378,1.622c9.335,3.371,10.438,10.275,10.505,12.92a7.137,7.137,0,0,1,0,1.059s14.076.37,19.632,4.445a15.064,15.064,0,0,0,3.341,1.7,61.5,61.5,0,0,0,6.853,2.141c1.193.311,2.437.615,3.7.911,2.223.511,4.578,1.008,6.853,1.482,6.067,1.222,11.779,2.223,14.676,2.963,6.912,1.748,22.721,16.906,22.721,16.906s1.852,15.291,3.7,17.521,5.186,10.068,5.186,10.068l12.253,21.788,5.186,9.164h3.334a5.668,5.668,0,0,1,2.378,1.556c.882.785,1.859,1.763,2.719,2.652l1.422,1.519.889.985s5.386.133,6.845,4.393c4.386-.126,9.772.163,13.543,1.852a10.473,10.473,0,0,1,1.482.8,6.431,6.431,0,0,1,3.06,4.193,6.189,6.189,0,0,1,.133,1.067c0,.422,0,.845,0,1.259-.267,5.608-3.919,10.275-7.275,13.417l.237.422s-.111.267-.326.741c-.059.141-.133.3-.215.474h0c-.437.933-1.133,2.334-2.045,3.971a46.9,46.9,0,0,1-7.09,9.757l-.215.222-42.776.393-.126-.148-8.3-9.9-4.127-4.919-.126-.156-.119,1.178-.4,3.926-.963,9.49-.052.474v.126l-.111,1.1.081-1.1h-.215l-79.27.741L417.352,627v.622h-.1V627l-33.152.356Z" transform="translate(-158.226 -218.273)" fill="url(#linear-gradient)"/>
      <path id="Path_181" data-name="Path 181" d="M594.45,521.555s-73.713,8.89-66.675,0c2.549-3.215,3.252-12.742,3.112-23.6-.044-3.3-.163-6.712-.333-10.112-.815-16.3-2.778-32.226-2.778-32.226s64.453-30.374,57.045-6.3c-2.963,9.727-1.993,23.388.259,36.212.659,3.741,1.422,7.408,2.222,10.89A255.342,255.342,0,0,0,594.45,521.555Z" transform="translate(-195.432 -242.131)" fill="#fbbebe"/>
      <path id="Path_182" data-name="Path 182" d="M594.45,540.664s-73.713,8.89-66.675,0c2.549-3.215,3.252-12.742,3.112-23.6,11.238-4.8,25.537-1.222,25.537-1.222,15.054-3,24.707-2.415,30.878-.311A255.342,255.342,0,0,0,594.45,540.664Z" transform="translate(-195.432 -261.24)" opacity="0.1"/>
      <path id="Path_183" data-name="Path 183" d="M417.441,671.094v-.622l130.106-1.415,79.27-.741h.222l-.081,1.1.111-1.1h.141v-.126l1.015-9.964.385-3.771.119-1.178.1-.985,4.578-15.269,4.578-15.246,3.852-12.839,5.882-19.617s-3.334-7.779-5.186-10-3.7-17.41-3.7-17.41-15.81-15.061-22.721-16.795c-2.9-.741-8.616-1.726-14.691-2.963-2.274-.459-4.608-.948-6.853-1.482-1.267-.289-2.511-.593-3.7-.9a65.1,65.1,0,0,1-6.853-2.119,15.331,15.331,0,0,1-3.334-1.7c-5.445-3.993-19.091-4.445-19.617-4.445h0a.32.32,0,0,1,0-.052v-.067a7.573,7.573,0,0,0,0-.933,5.954,5.954,0,0,0-.067-1.037.935.935,0,0,0-.052-.37c-.037-.267-.081-.548-.148-.845a3.7,3.7,0,0,0-.089-.393,12.754,12.754,0,0,0-.926-2.586c-.052-.119-.119-.245-.178-.363a13.521,13.521,0,0,0-1.26-1.948c-.1-.126-.2-.259-.311-.385a14.5,14.5,0,0,0-2.015-1.956c-.2-.156-.407-.319-.622-.467a3.461,3.461,0,0,0-.378-.267l-.659-.43-.615-.356c-.541-.3-1.111-.585-1.734-.859-.193-.089-.4-.17-.607-.252s-.533-.207-.808-.311h-.044l-.556-.222c-.422-.141-.852-.267-1.3-.393l-.689-.178-.741-.17-.741-.156c-.741-.148-1.534-.282-2.363-.385l-.845-.1-.867-.089-.9-.074-1.274-.074-1.482-.052a92.39,92.39,0,0,0-19.448,2.069,53.538,53.538,0,0,0-13.519-1.246h-.645l-.741.044h-.474l-.956.089a7.107,7.107,0,0,0-.963.111c-.319.044-.652.081-.97.133l-.489.081c-.482.081-.97.17-1.482.274q-.245.044-.489.111c-.645.141-1.289.311-1.926.5-.319.089-.637.193-.956.3-.163.044-.319.1-.474.163l-.474.17-.467.185-.556.222c-.282.119-.556.245-.83.378-.156.067-.311.141-.459.222s-.3.148-.444.23a20.557,20.557,0,0,0-4.6,3.245l-.378.363-.37.378c-.126.126-.245.259-.363.393a17.643,17.643,0,0,0-1.348,1.667c-.119.156-.23.311-.341.474a19.776,19.776,0,0,0-1.274,2.163c-.1.178-.185.363-.274.541A24.225,24.225,0,0,0,481.6,532.9q-.208.741-.378,1.482s-15.684,6.919-28.693,11.928c-3.46,1.333-6.719,2.541-9.446,3.452-.793.267-1.534.511-2.223.741a19.782,19.782,0,0,1-4.63,1.067,14.565,14.565,0,0,0-2.223.207c-5.979.971-16.224,5.186-17.343,9.416a2.733,2.733,0,0,0-.074,1.037v.082c.741,5.186-4.445,4.445-4.445,4.445s-1.852,13.706-4.445,17.41c-1.874,2.667-3.156,8.616-3.319,13.105h0a14.527,14.527,0,0,0,.326,4.171v.1c.3.993-.415,3.7-1.622,7.179-1.311,3.815-3.223,8.557-5.06,13.031-2.771,6.756-5.379,12.891-5.541,14.239-.067.6-.259,1.674-.526,3.06-1.082,5.645-3.482,16.395-4.667,20.743-.882,3.245-2.163,7.69-3.045,10.742a1.04,1.04,0,0,1-.074.259l33.212-.326v.622h.1Z" transform="translate(-158.338 -261.75)" fill="#8a8a8a"/>
      <path id="Path_184" data-name="Path 184" d="M445.44,607.57s42.228,21.855,57.415,19.262Z" transform="translate(-174.217 -285.548)" opacity="0.1"/>
      <path id="Path_185" data-name="Path 185" d="M561.44,595.57s41.116,13.335,54.822,15.187S561.44,595.57,561.44,595.57Z" transform="translate(-204.279 -282.439)" opacity="0.1"/>
      <path id="Path_186" data-name="Path 186" d="M595.218,532.5c-21.484,3.956-61.934,3.1-79.418,2.5,6.408-22.966,37.657-15.158,37.657-15.158C592.136,512.126,595.1,528.143,595.218,532.5Z" transform="translate(-192.451 -262.276)" opacity="0.1"/>
      <path id="Path_187" data-name="Path 187" d="M595.218,530.5c-21.484,3.956-61.934,3.1-79.418,2.5,6.408-22.966,37.657-15.158,37.657-15.158C592.136,510.126,595.1,526.143,595.218,530.5Z" transform="translate(-192.451 -261.758)" fill="#8a8a8a"/>
      <path id="Path_188" data-name="Path 188" d="M776.94,672.089s25.307-3.889,25.8,7.223-12.905,18.877-12.905,18.877Z" transform="translate(-260.129 -302.099)" fill="#fbbebe"/>
      <path id="Path_189" data-name="Path 189" d="M585.228,485.535a34.84,34.84,0,0,1-3.334,1.289c-7.986,2.756-16.039,5.534-24.448,6.542s-17.232.119-24.566-4.075a21.326,21.326,0,0,1-2.222-1.445c-.815-16.3-2.778-32.226-2.778-32.226s64.453-30.374,57.045-6.3C581.976,459.05,582.976,472.711,585.228,485.535Z" transform="translate(-195.582 -242.132)" opacity="0.1"/>
      <path id="Path_190" data-name="Path 190" d="M540.962,361.474a7.016,7.016,0,0,1-6.164-1.3l1.541,2.141a6.275,6.275,0,0,1-5.023-1.667,25.247,25.247,0,0,0,.237,5.741,10.757,10.757,0,0,1-7.082-2.223,3.275,3.275,0,0,0,1.956,3.193A10.624,10.624,0,0,0,514.87,375.3l3.867.356A13.683,13.683,0,0,0,511,380.373c-1.185,1.482-2.089,3.378-1.571,5.186s3.023,2.963,4.386,1.674a20.7,20.7,0,0,0-4.519,16.884,10.72,10.72,0,0,1,.341,3.9,33.057,33.057,0,0,1-1.4,3.474c-.741,2.163-.037,4.512.622,6.668l3.475,11.424c1.259,4.126,2.511,8.26,4.156,12.253a60.8,60.8,0,0,1,2.963,7.786c.933,3.586.97,7.512,2.963,10.646a14.766,14.766,0,0,0,5.319,4.689c7.327,4.193,16.18,5.082,24.566,4.075s16.432-3.786,24.411-6.542a22.966,22.966,0,0,0,5.067-2.223c5.519-3.615,6.749-11.009,7.779-17.521a99.487,99.487,0,0,1,5.4-21.336c1.615-4.067,3.7-8.194,3.349-12.55-.452-5.786-5.03-10.475-6.164-16.165a14.076,14.076,0,0,1,.052-5.756,13.084,13.084,0,0,0,.585-3.482c-.126-2.385-2.082-4.223-3.919-5.756q-5.978-4.993-12.342-9.438c-.215-1.482,1.8-2.119,2.711-3.289,1.289-1.652-.044-4.275-2-5.045s-4.149-.267-6.186.244a4.882,4.882,0,0,0-8.557-3.786,7.557,7.557,0,0,0-6.238-4.5c-4.912-.385-5.008,3.371-8.149,5.438s-5.734-.659-8.149-2.645A6.875,6.875,0,0,0,540.962,361.474Z" transform="translate(-190.41 -219.276)" fill="#1a192b"/>
      <path id="Path_191" data-name="Path 191" d="M777.046,677.767s-.659,1.571-1.874,3.845a51.116,51.116,0,0,1-6.667,9.757l-.2.215h-1.2l-42.776.393h-1.022l-.126-.148-8.3-9.846-3.126-3.712-.126-.156-.267-.311-.148-.178-.193-.23-6.082-7.216,2.222-9.26,3.786-15.6.1-.378.741-2.963.526-2.223,1.763-7.245,6.045-24.929,10.742,5.556,11.327,20,6.082,10.742h3.334c.63,0,2.074,1.215,3.526,2.615.519.5,1.037,1.022,1.482,1.482,1.319,1.363,2.363,2.534,2.363,2.534s5.4.119,6.853,4.371a5.2,5.2,0,0,1,.185.63,29.854,29.854,0,0,0,1.874,4.86c.956,2.082,2.156,4.445,3.371,6.808,2.26,4.334,4.556,8.46,5.4,9.957l.1.185Z" transform="translate(-241.469 -285.551)" fill="#8a8a8a"/>
      <path id="Path_192" data-name="Path 192" d="M641.887,654.154l-.074,1.059v.074l-.126,1.7L640.7,670.7l-1.193,16.521-.341,4.652-.741,9.957v.126l-79.27.741-130.084,1.408v.622h-.1v-.83l.333-10.638.637-20.788.548-17.625.052-1.756A7.8,7.8,0,0,1,439,645.56c3.5.3,8.038.659,13.468,1.044l2.223.163c31.36,2.178,89.315,4.993,147.8,1.482,1.23-.067,2.467-.141,3.7-.23,9.068-.57,18.128-1.3,27.1-2.222a7.8,7.8,0,0,1,8.594,8.32Z" transform="translate(-169.948 -295.387)" opacity="0.1"/>
      <path id="Path_193" data-name="Path 193" d="M429.08,705.775v-.622l130.106-1.415,79.27-.741h.222v-.126l.741-9.957.319-4.445,1.215-16.75.956-13.261v-.326a7.866,7.866,0,0,0-.081-1.83.223.223,0,0,0,0-.074,7.7,7.7,0,0,0-1.482-3.438,7.808,7.808,0,0,0-6.979-2.963c-8.971.919-18.032,1.652-27.1,2.223-1.237.089-2.474.163-3.7.23-58.482,3.474-116.437.659-147.8-1.482l-2.223-.163c-5.43-.385-9.972-.741-13.468-1.044a7.808,7.808,0,0,0-8.327,6.319,8.149,8.149,0,0,0-.133,1.215l-.5,16.417-.689,20.8-.326,10.638v.83Z" transform="translate(-169.977 -296.431)" fill="#3f3d56"/>
      <path id="Path_194" data-name="Path 194" d="M642.145,662.34l-.911,11.357-1.356,16.928-.341,4.238-.741,9.49-.044.474v.126h0l-.111,1.1.081-1.1h-.215l-79.27.741L429.11,707.1v-.207l.363-10.638.741-20.788.474-13.817a4.712,4.712,0,0,1,2.267-3.889,4.631,4.631,0,0,1,2.8-.667c1.556.126,3.467.274,5.7.437,3.623.267,8.09.578,13.291.9,9.631.608,21.714,1.259,35.56,1.793,38.524,1.482,90.53,1.978,139.929-2.348,2.223-.193,4.519-.408,6.764-.622a4.637,4.637,0,0,1,2.578.489,3.819,3.819,0,0,1,.637.4,4.549,4.549,0,0,1,1.482,1.823,2.632,2.632,0,0,1,.185.452A4.651,4.651,0,0,1,642.145,662.34Z" transform="translate(-169.984 -298.379)" opacity="0.1"/>
      <path id="Path_195" data-name="Path 195" d="M365.215,677.87v2.363a4.541,4.541,0,0,1-2.593,4.1l-29.708.57a4.534,4.534,0,0,1-2.645-4.126v-2.222Z" transform="translate(-144.369 -303.768)" opacity="0.1"/>
      <path id="Path_196" data-name="Path 196" d="M285.059,513.323l-38.709.741v-6.423l38.709-.741Z" transform="translate(-63.842 -131.36)" fill="#3f3d56"/>
      <path id="Path_197" data-name="Path 197" d="M285.059,513.323l-38.709.741v-6.423l38.709-.741Z" transform="translate(-63.842 -131.36)" opacity="0.1"/>
      <path id="Path_198" data-name="Path 198" d="M287.059,513.323l-38.709.741v-6.423l38.709-.741Z" transform="translate(-64.36 -131.36)" fill="#3f3d56"/>
      <g id="Group_25" data-name="Group 25" transform="translate(317.811 136.553)" opacity="0.1">
        <path id="Path_199" data-name="Path 199" d="M552.411,360.435a7.224,7.224,0,0,1-1.4-3.215,7.029,7.029,0,0,0,.311,3.408A6.669,6.669,0,0,0,552.411,360.435Z" transform="translate(-519.365 -357.22)"/>
        <path id="Path_200" data-name="Path 200" d="M540.134,367.241a26.037,26.037,0,0,1-.274-2.741c0,.911,0,1.83,0,2.749Z" transform="translate(-516.497 -359.107)"/>
        <path id="Path_201" data-name="Path 201" d="M621.712,399.393a13.582,13.582,0,0,1,.267-1.963,13.335,13.335,0,0,0,.593-3.475,4.563,4.563,0,0,0-.119-.785c-.126.682-.326,1.363-.474,2.037a14.175,14.175,0,0,0-.267,4.186Z" transform="translate(-537.697 -366.537)"/>
        <path id="Path_202" data-name="Path 202" d="M600.924,369.356l.807.585a14.6,14.6,0,0,0,1.9-1.645,2.719,2.719,0,0,0,.281-2.7,2.222,2.222,0,0,1-.281.474C602.725,367.245,600.71,367.889,600.924,369.356Z" transform="translate(-532.319 -359.392)"/>
        <path id="Path_203" data-name="Path 203" d="M518.535,380.29a9.122,9.122,0,0,0-.645,1.689,13.455,13.455,0,0,1,3.7-1.4Z" transform="translate(-510.803 -363.199)"/>
        <path id="Path_204" data-name="Path 204" d="M532.061,369.091a10.991,10.991,0,0,1-1.393-.911,3.144,3.144,0,0,0,.067.874,8.79,8.79,0,0,1,1.326.037Z" transform="translate(-514.113 -360.06)"/>
        <path id="Path_205" data-name="Path 205" d="M598.7,428.33c-.3,3.593-1.978,7.053-3.334,10.461a99.445,99.445,0,0,0-5.4,21.344c-1.03,6.512-2.222,13.906-7.779,17.513a22.227,22.227,0,0,1-5.06,2.223c-7.986,2.763-16.039,5.534-24.448,6.542s-17.232.126-24.566-4.067a14.817,14.817,0,0,1-5.319-4.69c-1.978-3.134-2.015-7.06-2.963-10.646a60.9,60.9,0,0,0-2.963-7.794c-1.637-3.986-2.9-8.149-4.149-12.246q-1.741-5.712-3.475-11.431a21.351,21.351,0,0,1-.845-3.519,13.279,13.279,0,0,0,.845,5.741q1.734,5.727,3.475,11.431c1.252,4.126,2.511,8.26,4.149,12.246a60.9,60.9,0,0,1,2.963,7.794c.933,3.586.971,7.512,2.963,10.646a14.817,14.817,0,0,0,5.319,4.689c7.334,4.193,16.18,5.075,24.566,4.067s16.432-3.778,24.448-6.542a22.225,22.225,0,0,0,5.06-2.222c5.519-3.608,6.749-11,7.779-17.513a99.445,99.445,0,0,1,5.4-21.344c1.615-4.06,3.7-8.186,3.349-12.55C598.718,428.419,598.7,428.374,598.7,428.33Z" transform="translate(-508.324 -375.649)"/>
        <path id="Path_206" data-name="Path 206" d="M510.4,422.21v-.081a10.371,10.371,0,0,0-.341-3.889,19.7,19.7,0,0,1-.289-2.46,20.262,20.262,0,0,0,.289,4.682C510.177,421.04,510.31,421.625,510.4,422.21Z" transform="translate(-508.691 -372.397)"/>
        <path id="Path_207" data-name="Path 207" d="M512.771,398.468a20.542,20.542,0,0,1,1.934-2.719c-1.356,1.3-3.86.141-4.386-1.659a4.32,4.32,0,0,0,0,2.223A3.252,3.252,0,0,0,512.771,398.468Z" transform="translate(-508.804 -366.775)"/>
      </g>
      <path id="Path_208" data-name="Path 208" d="M763.075,656.57s2.348,8.52,0,15.928S763.075,656.57,763.075,656.57Z" transform="translate(-256.265 -298.247)" opacity="0.1"/>
      <path id="Path_209" data-name="Path 209" d="M776.247,668.3s.985,10.816-1.237,12.735S776.247,668.3,776.247,668.3Z" transform="translate(-259.436 -301.287)" opacity="0.1"/>
      <g id="Group_45" data-name="Group 45" transform="translate(3.134 -6.201)">
        <line id="Line_2-5" data-name="Line 2" y1="0.741" x2="75.277" transform="translate(147.422 253.272)" fill="none" stroke="#ffa64b" stroke-miterlimit="10" stroke-width="4"/>
        <line id="Line_3-5" data-name="Line 3" y1="0.733" x2="75.277" transform="translate(147.422 262.517)" fill="none" stroke="#ffa64b" stroke-miterlimit="10" stroke-width="4"/>
        <line id="Line_4-5" data-name="Line 4" y1="0.741" x2="75.277" transform="translate(147.422 271.756)" fill="none" stroke="#ffa64b" stroke-miterlimit="10" stroke-width="4"/>
      </g>
      <g id="Group_46" data-name="Group 46" transform="translate(3.134 25.799)">
        <line id="Line_2-6" data-name="Line 2" y1="0.741" x2="58.751" transform="translate(147.422 253.272)" fill="none" stroke="#ffa64b" stroke-miterlimit="10" stroke-width="4"/>
        <line id="Line_3-6" data-name="Line 3" y1="0.733" x2="58.751" transform="translate(147.422 262.517)" fill="none" stroke="#ffa64b" stroke-miterlimit="10" stroke-width="4"/>
        <line id="Line_4-6" data-name="Line 4" y1="0.741" x2="58.751" transform="translate(147.422 271.756)" fill="none" stroke="#ffa64b" stroke-miterlimit="10" stroke-width="4"/>
      </g>
      <g id="Group_47" data-name="Group 47" transform="translate(3.134 58.633)">
        <line id="Line_2-7" data-name="Line 2" y1="0.741" x2="71.943" transform="translate(147.422 253.272)" fill="none" stroke="#ffa64b" stroke-miterlimit="10" stroke-width="4"/>
        <line id="Line_3-7" data-name="Line 3" y1="0.733" x2="71.943" transform="translate(147.422 262.517)" fill="none" stroke="#ffa64b" stroke-miterlimit="10" stroke-width="4"/>
        <line id="Line_4-7" data-name="Line 4" y1="0.741" x2="71.943" transform="translate(147.422 271.756)" fill="none" stroke="#ffa64b" stroke-miterlimit="10" stroke-width="4"/>
      </g>
    </g>
  </g>
</svg>
