<svg xmlns="http://www.w3.org/2000/svg" width="24" height="24" viewBox="0 0 24 24">
  <path id="dribbble" d="M16,4A12,12,0,1,0,28,16,12.013,12.013,0,0,0,16,4Zm0,2a9.953,9.953,0,0,1,6.594,2.5,6.99,6.99,0,0,1-.844.969,12.145,12.145,0,0,1-4.312,2.594A47.686,47.686,0,0,0,13.719,6.25,10.183,10.183,0,0,1,16,6Zm-4.25.938a46.68,46.68,0,0,1,3.75,5.719,38.347,38.347,0,0,1-9.281,1.219A9.978,9.978,0,0,1,11.75,6.938ZM23.969,9.969A9.99,9.99,0,0,1,26,15.75a18.626,18.626,0,0,0-3.906-.406,24.442,24.442,0,0,0-2.969.188c-.25-.57-.52-1.121-.781-1.656a14.006,14.006,0,0,0,4.781-2.969A9.533,9.533,0,0,0,23.969,9.969Zm-7.562,4.5c.23.465.465.941.688,1.438C12.82,17.09,9.75,20.715,8.438,22.531A9.963,9.963,0,0,1,6,16v-.125A39.463,39.463,0,0,0,16.406,14.469Zm5.688,2.844a14.827,14.827,0,0,1,3.75.438,9.928,9.928,0,0,1-4.094,6.438,35.775,35.775,0,0,0-1.844-6.75C20.7,17.359,21.441,17.313,22.094,17.313Zm-4.219.469a33.179,33.179,0,0,1,2.031,7.438,10.079,10.079,0,0,1-10-1.281C10.934,22.531,13.953,18.789,17.875,17.781Z" transform="translate(-4 -4)" opacity="0.827"/>
</svg>
