<svg xmlns="http://www.w3.org/2000/svg" width="24" height="19.508" viewBox="0 0 24 19.508">
  <path id="twitter" d="M28,8.559a9.813,9.813,0,0,1-2.828.773,4.941,4.941,0,0,0,2.164-2.723,9.921,9.921,0,0,1-3.125,1.2,4.925,4.925,0,0,0-8.52,3.367,4.812,4.812,0,0,0,.129,1.121A13.957,13.957,0,0,1,5.672,7.148,4.926,4.926,0,0,0,7.2,13.723a4.9,4.9,0,0,1-2.23-.617v.063A4.922,4.922,0,0,0,8.914,18a4.9,4.9,0,0,1-1.3.176,4.8,4.8,0,0,1-.926-.09,4.932,4.932,0,0,0,4.6,3.422,9.875,9.875,0,0,1-6.113,2.105A9.747,9.747,0,0,1,4,23.539a14,14,0,0,0,21.559-11.8c0-.211-.008-.426-.016-.637A10.085,10.085,0,0,0,28,8.559Z" transform="translate(-4 -6.246)" opacity="0.827"/>
</svg>
