<svg id="undraw_searching_p5ux" xmlns="http://www.w3.org/2000/svg" width="731.045" height="527.874" viewBox="0 0 731.045 527.874">
  <rect id="Rectangle_323" data-name="Rectangle 323" width="6.507" height="257.045" transform="translate(634.792 257.123)" fill="#3f3d56"/>
  <path id="Path_331" data-name="Path 331" d="M1042.432,406.214c.414,89.882-62.823,163.039-62.823,163.039S915.7,496.682,915.287,406.8s62.823-163.039,62.823-163.039S1042.018,316.332,1042.432,406.214Z" transform="translate(-341.076 -116.333)" fill="#3f3d56"/>
  <rect id="Rectangle_324" data-name="Rectangle 324" width="3.347" height="132.204" transform="translate(507.837 378.066)" fill="#3f3d56"/>
  <path id="Path_332" data-name="Path 332" d="M833.328,605.2c.213,46.229-32.311,83.855-32.311,83.855s-32.87-37.325-33.083-83.553,32.311-83.855,32.311-83.855S833.115,558.974,833.328,605.2Z" transform="translate(-291.256 -210.288)" fill="#3f3d56"/>
  <ellipse id="Ellipse_215" data-name="Ellipse 215" cx="90.68" cy="13.9" rx="90.68" ry="13.9" transform="translate(486.474 500.074)" fill="#3f3d56"/>
  <path id="Path_333" data-name="Path 333" d="M900.752,331.359c-7.683-12.981-22.882-13.586-22.882-13.586s-14.811-1.894-24.312,17.877c-8.856,18.428-21.078,36.22-1.968,40.534l3.452-10.744,2.138,11.544a74.766,74.766,0,0,0,8.177.14c20.466-.661,39.956.193,39.328-7.151C903.85,360.209,908.144,343.849,900.752,331.359Z" transform="translate(-316.119 -141.34)" fill="#2f2e41"/>
  <path id="Path_334" data-name="Path 334" d="M889.234,372.553s9.928,13.9,3.971,25.152,13.9,23.166,13.9,23.166L921.667,389.1s-17.209-11.252-12.576-21.843Z" transform="translate(-332.268 -158.088)" fill="#fbbebe"/>
  <circle id="Ellipse_216" data-name="Ellipse 216" cx="17.209" cy="17.209" r="17.209" transform="translate(546.376 186.003)" fill="#fbbebe"/>
  <path id="Path_335" data-name="Path 335" d="M809.255,369.385l14.382-18.555s5.064-19.45,12.4-18.464-2.9,23.325-2.9,23.325l-14.29,20.539Z" transform="translate(-305.227 -146.279)" fill="#fbbebe"/>
  <path id="Path_336" data-name="Path 336" d="M871.469,709l4.633,24.49,9.928,2.648-2.648-29.124Z" transform="translate(-294.646 -239.043)" fill="#fbbebe"/>
  <path id="Path_337" data-name="Path 337" d="M1022.469,667.31l17.871,24.49,7.281,3.309,5.957-9.928-17.871-23.166Z" transform="translate(-345.699 -223.829)" fill="#fbbebe"/>
  <path id="Path_338" data-name="Path 338" d="M895.478,418.733,884.437,404.2s-21.392,3.944-23.378,5.93,5.3,38.39,5.3,38.39,1.324,9.928,7.281,15.224l5.957,3.971,48.98-9.928,1.842-21.794a57.2,57.2,0,0,0-15.08-43.734h0l-8.522,1.165Z" transform="translate(-322.626 -166.54)" fill="#575a89"/>
  <path id="Path_339" data-name="Path 339" d="M840.551,406.381l-3.309-1.324-15.224-1.324s-5.3-1.324-3.971-3.971,2.648-3.309,0-3.971-3.31-1.324-2.648-3.31,4.633-5.957,4.633-5.957l-11.252-9.267s-.609.431-1.593,1.228c-5.587,4.523-23.264,20.843-10.321,37.162,15.224,19.2,33.095,30.447,47.657,26.476Z" transform="translate(-299.47 -161.469)" fill="#575a89"/>
  <path id="Path_340" data-name="Path 340" d="M885,497.877v9.267s-5.957,11.252-3.971,21.843,2.648,15.886,2.648,15.886a90.37,90.37,0,0,0,4.633,26.476c4.633,13.238-10.59,99.947,8.6,101.27s29.785,2.648,35.742-3.971-9.928-120.465-9.928-120.465S977,661.365,988.255,656.732s39.714-15.224,36.4-21.181-86.709-138.337-86.709-138.337l-2.648-5.957Z" transform="translate(-329.356 -200.013)" fill="#2f2e41"/>
  <path id="Path_341" data-name="Path 341" d="M926.747,791.23s-10.59-.662-10.59,2.648-5.3,14.562-5.3,14.562-3.971,13.238,6.619,11.914,17.209-13.238,17.209-13.238l-2.648-12.576Z" transform="translate(-339.334 -301.416)" fill="#2f2e41"/>
  <path id="Path_342" data-name="Path 342" d="M1097.822,752.86s-9.267-5.957-8.6-1.986,1.324,14.562,5.957,15.224,18.533,4.633,19.195,5.957,16.547,6.619,16.547-1.986-9.928-15.224-9.928-15.224l-11.252-8.6s-7.281-.662-8.6,3.971S1097.822,752.86,1097.822,752.86Z" transform="translate(-399.871 -286.212)" fill="#2f2e41"/>
  <circle id="Ellipse_217" data-name="Ellipse 217" cx="10.99" cy="10.99" r="10.99" transform="translate(552.621 165.508)" fill="#2f2e41"/>
  <path id="Path_343" data-name="Path 343" d="M879.74,307.914a10.99,10.99,0,0,1,9.832-10.928,11.11,11.11,0,0,0-1.156-.062,10.99,10.99,0,1,0,1.157,21.918,10.99,10.99,0,0,1-9.833-10.928Z" transform="translate(-328.276 -134.308)" fill="#2f2e41"/>
  <path id="Path_344" data-name="Path 344" d="M857.682,281.173l-15.016-7.866-20.737,3.218-4.291,18.949,10.68-.411L831.3,288.1v6.847l4.928-.189,2.86-11.083,1.788,11.8,17.519-.357Z" transform="translate(-276.445 -92.406)" fill="#2f2e41"/>
  <path id="Path_345" data-name="Path 345" d="M903.164,497.491l-23.158.626s-19.76,3.845-18.652-4.131,20.386-5.186,20.386-5.186l21.1-3.219Z" transform="translate(-322.827 -198.093)" fill="#fbbebe"/>
  <path id="Path_346" data-name="Path 346" d="M939.669,390.534a4.942,4.942,0,0,1,5.451,3.394c4.534,14.286,18.5,62.095,4.624,68.654-16.345,7.725-28.272,7.386-28.272,7.386l-6.384-15.719,5.812-5.454,6.2-39.9,2.973-16.912Z" transform="translate(-341.009 -165.939)" fill="#575a89"/>
  <path id="Path_347" data-name="Path 347" d="M884.783,379.515l-2.648,26.476-23.166,9.928,25.814-5.957Z" transform="translate(-290.419 -128.315)" opacity="0.4"/>
  <path id="Path_348" data-name="Path 348" d="M751.952,298.705h0a31,31,0,0,1,18.1,13.152l2.165,3.353.109.139,37.983,11.114a2.769,2.769,0,0,1,1.893,3.386l-2.949,10.812a2.769,2.769,0,0,1-3.416,1.938L767.85,331.979h0l-3.816,1.443a34.1,34.1,0,0,1-21.923.745h0Z" transform="translate(-282.525 -134.91)" fill="#3f3d56"/>
  <ellipse id="Ellipse_218" data-name="Ellipse 218" cx="2.319" cy="4.349" rx="2.319" ry="4.349" transform="translate(500.427 194.932) rotate(-73.69)" fill="#575a89"/>
  <circle id="Ellipse_219" data-name="Ellipse 219" cx="1.595" cy="1.595" r="1.595" transform="translate(505.893 193.096)" fill="#3f3d56"/>
  <ellipse id="Ellipse_220" data-name="Ellipse 220" cx="18.593" cy="8.408" rx="18.593" ry="8.408" transform="matrix(0.308, -0.951, 0.951, 0.308, 450.872, 196.775)" fill="#f9a826"/>
  <path id="Path_349" data-name="Path 349" d="M753.342,318.861c3.052-9.412,2.222-18.184-1.794-20.092a3.9,3.9,0,0,1,.712.158c4.417,1.432,5.43,10.512,2.263,20.28s-9.316,16.525-13.733,15.093a3.883,3.883,0,0,1-.469-.188C744.666,334.665,750.342,328.114,753.342,318.861Z" transform="translate(-281.92 -134.932)" opacity="0.4"/>
  <path id="Path_350" data-name="Path 350" d="M517.692,215.072l-86.2-66.868a570.534,570.534,0,0,1-43.828-37.983C363.087,86.8,329.729,68.07,290.89,58.1,196.529,33.876,121.776,76.828,87.777,139.9,35.821,236.271-4,392.661,226.374,309.415c50.382-18.206,101.379-20.141,140.048-29.731L506.44,250.815Z" transform="translate(-47.766 -51.242)" fill="#f9a826"/>
  <circle id="Ellipse_221" data-name="Ellipse 221" cx="4.633" cy="4.633" r="4.633" transform="translate(206.491 42.04)" fill="#f2f2f2"/>
  <path id="Path_351" data-name="Path 351" d="M453.6,86.079h-1.206V84.873h-.236v1.206h-1.206v.236h1.206v1.206h.236V86.315H453.6Z" transform="translate(-152.467 -28.696)" fill="#f2f2f2"/>
  <path id="Path_352" data-name="Path 352" d="M636.6,238.079h-1.206v-1.206h-.236v1.206h-1.206v.236h1.206v1.206h.236v-1.206H636.6Z" transform="translate(-214.34 -80.087)" fill="#f2f2f2"/>
  <path id="Path_353" data-name="Path 353" d="M623.6,285.079h-1.206v-1.206h-.236v1.206h-1.206v.236h1.206v1.206h.236v-1.206H623.6Z" transform="translate(-209.944 -95.978)" fill="#f2f2f2"/>
  <path id="Path_354" data-name="Path 354" d="M64.6,325.079H63.391v-1.206h-.236v1.206H61.949v.236h1.206v1.206h.236v-1.206H64.6Z" transform="translate(-20.945 -109.502)" fill="#f2f2f2"/>
  <path id="Path_355" data-name="Path 355" d="M144.6,107.079h-1.206v-1.206h-.236v1.206h-1.206v.236h1.206v1.206h.236v-1.206H144.6Z" transform="translate(-47.993 -35.796)" fill="#f2f2f2"/>
  <path id="Path_356" data-name="Path 356" d="M455.6,293.079h-1.206v-1.206h-.236v1.206h-1.206v.236h1.206v1.206h.236v-1.206H455.6Z" transform="translate(-153.143 -98.683)" fill="#f2f2f2"/>
  <path id="Path_357" data-name="Path 357" d="M264.6,43.079h-1.206V41.873h-.236v1.206h-1.206v.236h1.206v1.206h.236V43.315H264.6Z" transform="translate(-88.566 -14.157)" fill="#f2f2f2"/>
  <path id="Path_358" data-name="Path 358" d="M313.647,238.915l-1.5.232c.47,3.005.841,6.076,1.112,9.114l1.516-.132C314.5,245.051,314.124,241.954,313.647,238.915Z" transform="translate(-137.153 -114.695)" fill="#e6e6e6"/>
  <path id="Path_359" data-name="Path 359" d="M307.461,211.575l-1.456.443c.88,2.912,1.668,5.9,2.337,8.869l1.489-.338C309.149,217.546,308.348,214.528,307.461,211.575Z" transform="translate(-135.077 -105.451)" fill="#e6e6e6"/>
  <path id="Path_360" data-name="Path 360" d="M297.588,185.355l-1.383.635c1.271,2.773,2.462,5.62,3.541,8.466l1.423-.536C300.077,191.041,298.879,188.155,297.588,185.355Z" transform="translate(-131.764 -96.586)" fill="#e6e6e6"/>
  <path id="Path_361" data-name="Path 361" d="M284.239,160.775l-1.284.814c1.635,2.568,3.2,5.229,4.66,7.9l1.337-.728C287.482,166.057,285.894,163.37,284.239,160.775Z" transform="translate(-127.284 -88.276)" fill="#e6e6e6"/>
  <path id="Path_362" data-name="Path 362" d="M267.643,138.245l-1.158.986c1.972,2.317,3.892,4.739,5.706,7.188l1.218-.907C271.582,143.038,269.642,140.589,267.643,138.245Z" transform="translate(-121.715 -80.658)" fill="#e6e6e6"/>
  <path id="Path_363" data-name="Path 363" d="M248.138,118.185l-1.013,1.132c2.277,2.032,4.508,4.17,6.632,6.348l1.092-1.066C252.7,122.4,250.441,120.237,248.138,118.185Z" transform="translate(-115.169 -73.876)" fill="#e6e6e6"/>
  <path id="Path_364" data-name="Path 364" d="M226.1,100.965l-.854,1.258c2.528,1.7,5.03,3.515,7.433,5.388l.94-1.2C231.182,104.52,228.654,102.686,226.1,100.965Z" transform="translate(-107.772 -68.054)" fill="#e6e6e6"/>
  <path id="Path_365" data-name="Path 365" d="M206.4,89.005v1.721c1.582.827,3.151,1.694,4.686,2.581l.761-1.317Q209.172,90.442,206.4,89.005Z" transform="translate(-101.402 -64.01)" fill="#e6e6e6"/>
  <path id="Path_366" data-name="Path 366" d="M314.57,267.207l1.521-.028c.028,1.536.03,3.081.006,4.591l-1.521-.024C314.6,270.254,314.6,268.726,314.57,267.207Z" transform="translate(-137.973 -124.251)" fill="#e6e6e6"/>
  <path id="Path_367" data-name="Path 367" d="M178.647,435.915l-1.5.232c.47,3.005.841,6.076,1.112,9.114l1.516-.132C179.5,442.051,179.124,438.954,178.647,435.915Z" transform="translate(-91.509 -181.301)" fill="#e6e6e6"/>
  <path id="Path_368" data-name="Path 368" d="M172.461,408.575l-1.456.443c.88,2.912,1.668,5.9,2.337,8.869l1.489-.338C174.149,414.546,173.348,411.528,172.461,408.575Z" transform="translate(-89.433 -172.058)" fill="#e6e6e6"/>
  <path id="Path_369" data-name="Path 369" d="M162.588,382.355l-1.383.635c1.271,2.773,2.462,5.619,3.541,8.466l1.423-.536C165.077,388.041,163.879,385.155,162.588,382.355Z" transform="translate(-86.12 -163.193)" fill="#e6e6e6"/>
  <path id="Path_370" data-name="Path 370" d="M149.239,357.775l-1.284.814c1.635,2.568,3.2,5.229,4.66,7.9l1.337-.728C152.482,363.057,150.894,360.37,149.239,357.775Z" transform="translate(-81.64 -154.882)" fill="#e6e6e6"/>
  <path id="Path_371" data-name="Path 371" d="M132.643,335.245l-1.158.986c1.972,2.317,3.892,4.739,5.706,7.188l1.218-.907C136.582,340.038,134.642,337.589,132.643,335.245Z" transform="translate(-76.071 -147.265)" fill="#e6e6e6"/>
  <path id="Path_372" data-name="Path 372" d="M113.138,315.185l-1.013,1.132c2.277,2.032,4.508,4.17,6.632,6.348l1.092-1.066C117.7,319.4,115.441,317.237,113.138,315.185Z" transform="translate(-69.526 -140.482)" fill="#e6e6e6"/>
  <path id="Path_373" data-name="Path 373" d="M91.1,297.965l-.854,1.258c2.528,1.7,5.03,3.515,7.433,5.388l.94-1.2C96.182,301.52,93.654,299.686,91.1,297.965Z" transform="translate(-62.128 -134.66)" fill="#e6e6e6"/>
  <path id="Path_374" data-name="Path 374" d="M71.4,286.005v1.721c1.582.827,3.151,1.694,4.686,2.581l.761-1.317Q74.172,287.442,71.4,286.005Z" transform="translate(-55.758 -130.616)" fill="#e6e6e6"/>
  <path id="Path_375" data-name="Path 375" d="M179.57,464.207l1.521-.028c.028,1.536.03,3.081.006,4.591l-1.521-.024C179.6,467.254,179.6,465.726,179.57,464.207Z" transform="translate(-92.329 -190.857)" fill="#e6e6e6"/>
  <path id="Path_376" data-name="Path 376" d="M640.647,336.915l-1.5.232c.47,3.005.841,6.076,1.112,9.114l1.516-.132C641.5,343.051,641.124,339.954,640.647,336.915Z" transform="translate(-247.712 -147.829)" fill="#e6e6e6"/>
  <path id="Path_377" data-name="Path 377" d="M634.461,309.575l-1.456.443c.88,2.912,1.668,5.9,2.336,8.869l1.489-.338C636.149,315.546,635.348,312.528,634.461,309.575Z" transform="translate(-245.636 -138.585)" fill="#e6e6e6"/>
  <path id="Path_378" data-name="Path 378" d="M624.588,283.355l-1.383.635c1.271,2.773,2.462,5.62,3.541,8.466l1.423-.536C627.077,289.041,625.879,286.155,624.588,283.355Z" transform="translate(-242.323 -129.72)" fill="#e6e6e6"/>
  <path id="Path_379" data-name="Path 379" d="M611.239,258.775l-1.284.814c1.635,2.568,3.2,5.229,4.66,7.9l1.337-.728C614.482,264.057,612.894,261.37,611.239,258.775Z" transform="translate(-237.843 -121.41)" fill="#e6e6e6"/>
  <path id="Path_380" data-name="Path 380" d="M594.643,236.245l-1.158.986c1.972,2.317,3.892,4.739,5.706,7.188l1.218-.907C598.582,241.038,596.642,238.589,594.643,236.245Z" transform="translate(-232.275 -113.792)" fill="#e6e6e6"/>
  <path id="Path_381" data-name="Path 381" d="M575.138,216.185l-1.013,1.132c2.277,2.032,4.508,4.17,6.632,6.348l1.092-1.066C579.7,220.4,577.441,218.237,575.138,216.185Z" transform="translate(-225.729 -107.01)" fill="#e6e6e6"/>
  <path id="Path_382" data-name="Path 382" d="M553.1,198.965l-.854,1.258c2.528,1.7,5.03,3.515,7.433,5.388l.94-1.2C558.182,202.52,555.654,200.686,553.1,198.965Z" transform="translate(-218.331 -101.188)" fill="#e6e6e6"/>
  <path id="Path_383" data-name="Path 383" d="M533.4,187.005v1.721c1.582.827,3.151,1.694,4.686,2.581l.761-1.317Q536.172,188.442,533.4,187.005Z" transform="translate(-211.961 -97.144)" fill="#e6e6e6"/>
  <path id="Path_384" data-name="Path 384" d="M641.57,365.207l1.521-.028c.028,1.536.03,3.081.006,4.591l-1.521-.024C641.6,368.254,641.6,366.726,641.57,365.207Z" transform="translate(-248.532 -157.385)" fill="#e6e6e6"/>
  <path id="Path_385" data-name="Path 385" d="M148.037,199.322h-1.122V198.2H146.7v1.123h-1.123v.218H146.7v1.123h.219V199.54h1.122Z" transform="translate(-49.219 -67.012)" fill="#f2f2f2"/>
  <path id="Path_386" data-name="Path 386" d="M128.5,301.679h-1.122v-1.123h-.219v1.123h-1.123v.219h1.123v1.122h.219V301.9H128.5Z" transform="translate(-42.612 -101.619)" fill="#f2f2f2"/>
  <path id="Path_387" data-name="Path 387" d="M71.159,391.386H70.036v-1.122h-.219v1.122H68.695v.219h1.122v1.123h.219v-1.123h1.123Z" transform="translate(-23.226 -131.949)" fill="#f2f2f2"/>
  <path id="Path_388" data-name="Path 388" d="M272.584,264.725A81.288,81.288,0,1,1,310.3,295.008a26.295,26.295,0,1,1-37.716-30.283Z" transform="translate(-119.077 -80.597)" fill="#3f3d56"/>
  <path id="Path_389" data-name="Path 389" d="M365.557,190.679c18.635,0,31.456,10.336,31.456,25.195,0,9.839-4.771,16.647-13.964,22.064-8.647,5.019-11.579,8.7-11.579,15.057h0a3.926,3.926,0,0,1-3.926,3.926h-9.527a3.926,3.926,0,0,1-3.923-3.789l-.017-.485c-.845-10.237,2.733-16.6,11.728-21.865,8.4-5.019,11.926-8.2,11.926-14.361s-5.963-10.684-13.368-10.684c-5.628,0-10.082,2.739-12.124,7.212a8.772,8.772,0,0,1-8.017,5.013h0a8.623,8.623,0,0,1-7.7-12.57C341.3,196.366,351.374,190.679,365.557,190.679Zm-13.069,85.175a10.668,10.668,0,1,1,10.634,10.237A10.408,10.408,0,0,1,352.488,275.854Z" transform="translate(-145.061 -98.386)" fill="#f9a826"/>
</svg>
