<svg xmlns="http://www.w3.org/2000/svg" xmlns:xlink="http://www.w3.org/1999/xlink" width="1800" height="2061" viewBox="0 0 1800 2061">
  <defs>
    <clipPath id="clip-path">
      <rect id="Rectangle_361" data-name="Rectangle 361" width="1800" height="2061" fill="#fff" stroke="#707070" stroke-width="1"/>
    </clipPath>
    <clipPath id="clip-path-2">
      <rect id="Rectangle_321" data-name="Rectangle 321" width="1803" height="2061" transform="translate(10 81.687)" fill="none" stroke="rgba(185,185,185,0.36)" stroke-width="1" stroke-dasharray="270 100" opacity="0.2"/>
    </clipPath>
  </defs>
  <g id="Mask_Group_2" data-name="Mask Group 2" clip-path="url(#clip-path)">
    <g id="Group_105" data-name="Group 105">
      <g id="Group_2" data-name="Group 2" transform="translate(-10 -81.687)" opacity="0.4" clip-path="url(#clip-path-2)">
        <g id="Rectangle_309" data-name="Rectangle 309" transform="translate(11 -1.313)" fill="none" stroke="rgba(110,110,110,0.18)" stroke-width="1" opacity="0.4">
          <rect width="180" height="2640" stroke="none"/>
          <rect x="0.5" y="0.5" width="179" height="2639" fill="none"/>
        </g>
        <g id="Rectangle_310" data-name="Rectangle 310" transform="translate(191 -1.313)" fill="#fff" stroke="rgba(110,110,110,0.49)" stroke-width="1">
          <rect width="180" height="2640" stroke="none"/>
          <rect x="0.5" y="0.5" width="179" height="2639" fill="none"/>
        </g>
        <g id="Rectangle_311" data-name="Rectangle 311" transform="translate(371 -1.313)" fill="#fff" stroke="rgba(110,110,110,0.66)" stroke-width="1" stroke-dasharray="170">
          <rect width="180" height="2640" stroke="none"/>
          <rect x="0.5" y="0.5" width="179" height="2639" fill="none"/>
        </g>
        <g id="Rectangle_312" data-name="Rectangle 312" transform="translate(551 -1.313)" fill="#fff" stroke="rgba(110,110,110,0.18)" stroke-width="1">
          <rect width="181" height="2640" stroke="none"/>
          <rect x="0.5" y="0.5" width="180" height="2639" fill="none"/>
        </g>
        <g id="Rectangle_313" data-name="Rectangle 313" transform="translate(732 -1.313)" fill="#fff" stroke="rgba(110,110,110,0.18)" stroke-width="1">
          <rect width="181" height="2640" stroke="none"/>
          <rect x="0.5" y="0.5" width="180" height="2639" fill="none"/>
        </g>
        <g id="Rectangle_314" data-name="Rectangle 314" transform="translate(913 -1.313)" fill="#fff" stroke="rgba(74,74,74,0.51)" stroke-width="1" stroke-dasharray="300 170">
          <rect width="179" height="2640" stroke="none"/>
          <rect x="0.5" y="0.5" width="178" height="2639" fill="none"/>
        </g>
        <g id="Rectangle_315" data-name="Rectangle 315" transform="translate(1092 -1.313)" fill="#fff" stroke="rgba(110,110,110,0.18)" stroke-width="1">
          <rect width="181" height="2640" stroke="none"/>
          <rect x="0.5" y="0.5" width="180" height="2639" fill="none"/>
        </g>
        <g id="Rectangle_316" data-name="Rectangle 316" transform="translate(1273 -1.313)" fill="#fff" stroke="rgba(110,110,110,0.55)" stroke-width="1">
          <rect width="180" height="2640" stroke="none"/>
          <rect x="0.5" y="0.5" width="179" height="2639" fill="none"/>
        </g>
        <g id="Rectangle_317" data-name="Rectangle 317" transform="translate(1453 -1.313)" fill="#fff" stroke="rgba(110,110,110,0.18)" stroke-width="1" stroke-dasharray="200">
          <rect width="181" height="2640" stroke="none"/>
          <rect x="0.5" y="0.5" width="180" height="2639" fill="none"/>
        </g>
        <g id="Rectangle_318" data-name="Rectangle 318" transform="translate(1634 -1.313)" fill="none" stroke="rgba(110,110,110,0.66)" stroke-width="1" stroke-dasharray="90 140" opacity="0.2">
          <rect width="179" height="2640" stroke="none"/>
          <rect x="0.5" y="0.5" width="178" height="2639" fill="none"/>
        </g>
        <g id="Rectangle_319" data-name="Rectangle 319" transform="translate(1813 -1.313)" fill="#fff" stroke="rgba(110,110,110,0.18)" stroke-width="1">
          <rect width="181" height="2640" stroke="none"/>
          <rect x="0.5" y="0.5" width="180" height="2639" fill="none"/>
        </g>
        <g id="Rectangle_320" data-name="Rectangle 320" transform="translate(1994 -1.313)" fill="#fff" stroke="rgba(110,110,110,0.18)" stroke-width="1">
          <rect width="181" height="2640" stroke="none"/>
          <rect x="0.5" y="0.5" width="180" height="2639" fill="none"/>
        </g>
      </g>
      <g id="Group_104" data-name="Group 104" transform="translate(121 158.5)">
        <path id="Polygon_1" data-name="Polygon 1" d="M12.064,5.763a4,4,0,0,1,6.872,0l8.459,14.188A4,4,0,0,1,23.959,26H7.041a4,4,0,0,1-3.436-6.048Z" transform="translate(435 281)" fill="#e5e5e5"/>
        <path id="Polygon_2" data-name="Polygon 2" d="M7.891,5.763a4,4,0,0,1,6.872,0l4.285,7.188A4,4,0,0,1,15.612,19H7.041a4,4,0,0,1-3.436-6.048Z" transform="matrix(0.574, -0.819, 0.819, 0.574, 1371.961, 741.24)" fill="#e5e5e5"/>
        <path id="Polygon_3" data-name="Polygon 3" d="M7.891,5.763a4,4,0,0,1,6.872,0l4.285,7.188A4,4,0,0,1,15.612,19H7.041a4,4,0,0,1-3.436-6.048Z" transform="matrix(0.574, -0.819, 0.819, 0.574, 82.96, 968.24)" fill="#e5e5e5"/>
        <path id="Polygon_4" data-name="Polygon 4" d="M7.891,5.763a4,4,0,0,1,6.872,0l4.285,7.188A4,4,0,0,1,15.612,19H7.041a4,4,0,0,1-3.436-6.048Z" transform="matrix(0.574, -0.819, 0.819, 0.574, 1288, 476.057)" fill="#fdc477"/>
        <g id="Ellipse_222" data-name="Ellipse 222" transform="translate(942 514)" fill="#fff" stroke="#707070" stroke-width="2" opacity="0.53">
          <circle cx="4.5" cy="4.5" r="4.5" stroke="none"/>
          <circle cx="4.5" cy="4.5" r="3.5" fill="none"/>
        </g>
        <g id="Ellipse_226" data-name="Ellipse 226" transform="translate(199 531)" fill="#fff" stroke="#707070" stroke-width="2" opacity="0.53">
          <circle cx="4.5" cy="4.5" r="4.5" stroke="none"/>
          <circle cx="4.5" cy="4.5" r="3.5" fill="none"/>
        </g>
        <g id="Ellipse_223" data-name="Ellipse 223" transform="translate(452 737)" fill="#fff" stroke="#707070" stroke-width="2" opacity="0.53">
          <circle cx="7" cy="7" r="7" stroke="none"/>
          <circle cx="7" cy="7" r="6" fill="none"/>
        </g>
        <g id="Ellipse_227" data-name="Ellipse 227" transform="translate(646.359 811.359)" fill="rgba(255,213,155,0.18)" stroke="#ffc679" stroke-width="2" stroke-dasharray="40 50">
          <circle cx="34.141" cy="34.141" r="34.141" stroke="none"/>
          <circle cx="34.141" cy="34.141" r="33.141" fill="none"/>
        </g>
        <g id="Ellipse_228" data-name="Ellipse 228" transform="translate(1291 209)" fill="rgba(255,213,155,0.18)" stroke="#ffc679" stroke-width="2" stroke-dasharray="40 50">
          <circle cx="16.5" cy="16.5" r="16.5" stroke="none"/>
          <circle cx="16.5" cy="16.5" r="15.5" fill="none"/>
        </g>
        <g id="Ellipse_224" data-name="Ellipse 224" transform="translate(1635 274)" fill="#b7b7b7" stroke="#707070" stroke-width="2" opacity="0.53">
          <circle cx="7" cy="7" r="7" stroke="none"/>
          <circle cx="7" cy="7" r="6" fill="none"/>
        </g>
        <g id="Ellipse_225" data-name="Ellipse 225" transform="translate(988 103)" fill="#fdc477" stroke="#ff9300" stroke-width="2" opacity="0.53">
          <circle cx="7" cy="7" r="7" stroke="none"/>
          <circle cx="7" cy="7" r="6" fill="none"/>
        </g>
        <text id="_" data-name="*" transform="translate(622 615)" fill="none" stroke="#ff9300" stroke-width="1" font-size="47" font-family="ProductSans-Bold, Product Sans" font-weight="700" opacity="0.7"><tspan x="0" y="0">*</tspan></text>
        <text id="_2" data-name="*" transform="translate(1676 962)" fill="none" stroke="#ff9300" stroke-width="1" font-size="107" font-family="ProductSans-Bold, Product Sans" font-weight="700" opacity="0.7"><tspan x="0" y="0">*</tspan></text>
        <text id="_3" data-name="&amp;" transform="matrix(0.985, -0.174, 0.174, 0.985, 804.506, 348.362)" fill="none" stroke="#ff9300" stroke-width="1" font-size="46" font-family="ProductSans-Bold, Product Sans" font-weight="700" opacity="0.7"><tspan x="0" y="0">&amp;</tspan></text>
        <text id="_4" data-name="&gt;" transform="matrix(0.985, -0.174, 0.174, 0.985, 983.006, 799.541)" fill="none" stroke="#ff9300" stroke-width="1" font-size="46" font-family="ProductSans-Bold, Product Sans" font-weight="700" opacity="0.7"><tspan x="0" y="0">&gt;</tspan></text>
        <text id="_5" data-name="*" transform="translate(1156 933)" fill="#c3c3c3" stroke="#a0a0a0" stroke-width="1" font-size="27" font-family="ProductSans-Bold, Product Sans" font-weight="700" opacity="0.7"><tspan x="0" y="0">*</tspan></text>
      </g>
      <g id="Group_108" data-name="Group 108" transform="matrix(-0.899, -0.438, 0.438, -0.899, 1575.946, 2470.996)">
        <path id="Polygon_1-2" data-name="Polygon 1" d="M12.064,5.763a4,4,0,0,1,6.872,0l8.459,14.188A4,4,0,0,1,23.959,26H7.041a4,4,0,0,1-3.436-6.048Z" transform="translate(435 281)" fill="#e5e5e5"/>
        <path id="Polygon_2-2" data-name="Polygon 2" d="M7.891,5.763a4,4,0,0,1,6.872,0l4.285,7.188A4,4,0,0,1,15.612,19H7.041a4,4,0,0,1-3.436-6.048Z" transform="matrix(0.574, -0.819, 0.819, 0.574, 1371.961, 741.24)" fill="#e5e5e5"/>
        <path id="Polygon_3-2" data-name="Polygon 3" d="M7.891,5.763a4,4,0,0,1,6.872,0l4.285,7.188A4,4,0,0,1,15.612,19H7.041a4,4,0,0,1-3.436-6.048Z" transform="matrix(0.574, -0.819, 0.819, 0.574, 82.96, 968.24)" fill="#e5e5e5"/>
        <path id="Polygon_4-2" data-name="Polygon 4" d="M7.891,5.763a4,4,0,0,1,6.872,0l4.285,7.188A4,4,0,0,1,15.612,19H7.041a4,4,0,0,1-3.436-6.048Z" transform="matrix(0.574, -0.819, 0.819, 0.574, 1348.095, 555.928)" fill="#fdc477"/>
        <g id="Ellipse_222-2" data-name="Ellipse 222" transform="translate(942 514)" fill="#fff" stroke="#707070" stroke-width="2" opacity="0.53">
          <circle cx="4.5" cy="4.5" r="4.5" stroke="none"/>
          <circle cx="4.5" cy="4.5" r="3.5" fill="none"/>
        </g>
        <g id="Ellipse_226-2" data-name="Ellipse 226" transform="translate(199 531)" fill="#fff" stroke="#707070" stroke-width="2" opacity="0.53">
          <circle cx="4.5" cy="4.5" r="4.5" stroke="none"/>
          <circle cx="4.5" cy="4.5" r="3.5" fill="none"/>
        </g>
        <g id="Ellipse_223-2" data-name="Ellipse 223" transform="translate(452 737)" fill="#fff" stroke="#707070" stroke-width="2" opacity="0.53">
          <circle cx="7" cy="7" r="7" stroke="none"/>
          <circle cx="7" cy="7" r="6" fill="none"/>
        </g>
        <g id="Ellipse_227-2" data-name="Ellipse 227" transform="translate(589.538 956.538)" fill="rgba(255,213,155,0.18)" stroke="#ffc679" stroke-width="2" stroke-dasharray="40 50">
          <circle cx="26.962" cy="26.962" r="26.962" stroke="none"/>
          <circle cx="26.962" cy="26.962" r="25.962" fill="none"/>
        </g>
        <g id="Ellipse_228-2" data-name="Ellipse 228" transform="translate(1291 209)" fill="rgba(255,213,155,0.18)" stroke="#ffc679" stroke-width="2" stroke-dasharray="40 50">
          <circle cx="16.5" cy="16.5" r="16.5" stroke="none"/>
          <circle cx="16.5" cy="16.5" r="15.5" fill="none"/>
        </g>
        <g id="Ellipse_224-2" data-name="Ellipse 224" transform="translate(1635 274)" fill="#b7b7b7" stroke="#707070" stroke-width="2" opacity="0.53">
          <circle cx="7" cy="7" r="7" stroke="none"/>
          <circle cx="7" cy="7" r="6" fill="none"/>
        </g>
        <g id="Ellipse_225-2" data-name="Ellipse 225" transform="translate(988 103)" fill="#fdc477" stroke="#ff9300" stroke-width="2" opacity="0.53">
          <circle cx="7" cy="7" r="7" stroke="none"/>
          <circle cx="7" cy="7" r="6" fill="none"/>
        </g>
        <text id="_6" data-name="*" transform="translate(622 615)" fill="none" stroke="#ff9300" stroke-width="1" font-size="47" font-family="ProductSans-Bold, Product Sans" font-weight="700" opacity="0.7"><tspan x="0" y="0">*</tspan></text>
        <text id="_7" data-name="*" transform="translate(1676 962)" fill="none" stroke="#ff9300" stroke-width="1" font-size="107" font-family="ProductSans-Bold, Product Sans" font-weight="700" opacity="0.7"><tspan x="0" y="0">*</tspan></text>
        <text id="_8" data-name="&amp;" transform="matrix(0.985, -0.174, 0.174, 0.985, 804.506, 348.362)" fill="none" stroke="#ff9300" stroke-width="1" font-size="46" font-family="ProductSans-Bold, Product Sans" font-weight="700" opacity="0.7"><tspan x="0" y="0">&amp;</tspan></text>
        <text id="_9" data-name="&gt;" transform="matrix(0.985, -0.174, 0.174, 0.985, 983.006, 799.541)" fill="none" stroke="#ff9300" stroke-width="1" font-size="46" font-family="ProductSans-Bold, Product Sans" font-weight="700" opacity="0.7"><tspan x="0" y="0">&gt;</tspan></text>
        <text id="_10" data-name="*" transform="translate(1156 933)" fill="#c3c3c3" stroke="#a0a0a0" stroke-width="1" font-size="27" font-family="ProductSans-Bold, Product Sans" font-weight="700" opacity="0.7"><tspan x="0" y="0">*</tspan></text>
      </g>
      <g id="Group_106" data-name="Group 106" transform="translate(1019.115 1264.994) rotate(-135)">
        <path id="Polygon_1-3" data-name="Polygon 1" d="M12.064,5.763a4,4,0,0,1,6.872,0l8.459,14.188A4,4,0,0,1,23.959,26H7.041a4,4,0,0,1-3.436-6.048Z" transform="translate(435 281)" fill="#e5e5e5"/>
        <path id="Polygon_2-3" data-name="Polygon 2" d="M7.891,5.763a4,4,0,0,1,6.872,0l4.285,7.188A4,4,0,0,1,15.612,19H7.041a4,4,0,0,1-3.436-6.048Z" transform="matrix(0.574, -0.819, 0.819, 0.574, 1371.961, 741.24)" fill="#e5e5e5"/>
        <path id="Polygon_3-3" data-name="Polygon 3" d="M7.891,5.763a4,4,0,0,1,6.872,0l4.285,7.188A4,4,0,0,1,15.612,19H7.041a4,4,0,0,1-3.436-6.048Z" transform="matrix(0.574, -0.819, 0.819, 0.574, 82.96, 968.24)" fill="#e5e5e5"/>
        <path id="Polygon_4-3" data-name="Polygon 4" d="M7.891,5.763a4,4,0,0,1,6.872,0l4.285,7.188A4,4,0,0,1,15.612,19H7.041a4,4,0,0,1-3.436-6.048Z" transform="matrix(0.574, -0.819, 0.819, 0.574, 1288, 476.057)" fill="#fdc477"/>
        <g id="Ellipse_222-3" data-name="Ellipse 222" transform="translate(942 514)" fill="#fff" stroke="#707070" stroke-width="2" opacity="0.53">
          <circle cx="4.5" cy="4.5" r="4.5" stroke="none"/>
          <circle cx="4.5" cy="4.5" r="3.5" fill="none"/>
        </g>
        <g id="Ellipse_226-3" data-name="Ellipse 226" transform="translate(199 531)" fill="#fff" stroke="#707070" stroke-width="2" opacity="0.53">
          <circle cx="4.5" cy="4.5" r="4.5" stroke="none"/>
          <circle cx="4.5" cy="4.5" r="3.5" fill="none"/>
        </g>
        <g id="Ellipse_223-3" data-name="Ellipse 223" transform="translate(452 737)" fill="#fff" stroke="#707070" stroke-width="2" opacity="0.53">
          <circle cx="7" cy="7" r="7" stroke="none"/>
          <circle cx="7" cy="7" r="6" fill="none"/>
        </g>
        <g id="Ellipse_227-3" data-name="Ellipse 227" transform="translate(589 956)" fill="rgba(255,213,155,0.18)" stroke="#ffc679" stroke-width="2" stroke-dasharray="40 50">
          <circle cx="27.5" cy="27.5" r="27.5" stroke="none"/>
          <circle cx="27.5" cy="27.5" r="26.5" fill="none"/>
        </g>
        <g id="Ellipse_228-3" data-name="Ellipse 228" transform="translate(1291 209)" fill="rgba(255,213,155,0.18)" stroke="#ffc679" stroke-width="2" stroke-dasharray="40 50">
          <circle cx="16.5" cy="16.5" r="16.5" stroke="none"/>
          <circle cx="16.5" cy="16.5" r="15.5" fill="none"/>
        </g>
        <g id="Ellipse_224-3" data-name="Ellipse 224" transform="translate(1635 274)" fill="#b7b7b7" stroke="#707070" stroke-width="2" opacity="0.53">
          <circle cx="7" cy="7" r="7" stroke="none"/>
          <circle cx="7" cy="7" r="6" fill="none"/>
        </g>
        <g id="Ellipse_225-3" data-name="Ellipse 225" transform="translate(988 103)" fill="#fdc477" stroke="#ff9300" stroke-width="2" opacity="0.53">
          <circle cx="7" cy="7" r="7" stroke="none"/>
          <circle cx="7" cy="7" r="6" fill="none"/>
        </g>
        <text id="_11" data-name="*" transform="translate(622 615)" fill="none" stroke="#ff9300" stroke-width="1" font-size="47" font-family="ProductSans-Bold, Product Sans" font-weight="700" opacity="0.7"><tspan x="0" y="0">*</tspan></text>
        <text id="_12" data-name="*" transform="translate(1676 962)" fill="none" stroke="#ff9300" stroke-width="1" font-size="107" font-family="ProductSans-Bold, Product Sans" font-weight="700" opacity="0.7"><tspan x="0" y="0">*</tspan></text>
        <text id="_13" data-name="&amp;" transform="matrix(0.985, -0.174, 0.174, 0.985, 804.506, 348.362)" fill="none" stroke="#ff9300" stroke-width="1" font-size="46" font-family="ProductSans-Bold, Product Sans" font-weight="700" opacity="0.7"><tspan x="0" y="0">&amp;</tspan></text>
        <text id="_14" data-name="&gt;" transform="matrix(0.985, -0.174, 0.174, 0.985, 983.006, 799.541)" fill="none" stroke="#ff9300" stroke-width="1" font-size="46" font-family="ProductSans-Bold, Product Sans" font-weight="700" opacity="0.7"><tspan x="0" y="0">&gt;</tspan></text>
        <text id="_15" data-name="*" transform="translate(1156 933)" fill="#c3c3c3" stroke="#a0a0a0" stroke-width="1" font-size="27" font-family="ProductSans-Bold, Product Sans" font-weight="700" opacity="0.7"><tspan x="0" y="0">*</tspan></text>
      </g>
      <g id="Group_107" data-name="Group 107" transform="translate(1253.781 1082.778) rotate(71)">
        <path id="Polygon_1-4" data-name="Polygon 1" d="M12.064,5.763a4,4,0,0,1,6.872,0l8.459,14.188A4,4,0,0,1,23.959,26H7.041a4,4,0,0,1-3.436-6.048Z" transform="translate(435 281)" fill="#e5e5e5"/>
        <path id="Polygon_2-4" data-name="Polygon 2" d="M7.891,5.763a4,4,0,0,1,6.872,0l4.285,7.188A4,4,0,0,1,15.612,19H7.041a4,4,0,0,1-3.436-6.048Z" transform="matrix(0.574, -0.819, 0.819, 0.574, 1371.961, 741.24)" fill="#e5e5e5"/>
        <path id="Polygon_3-4" data-name="Polygon 3" d="M7.891,5.763a4,4,0,0,1,6.872,0l4.285,7.188A4,4,0,0,1,15.612,19H7.041a4,4,0,0,1-3.436-6.048Z" transform="matrix(0.574, -0.819, 0.819, 0.574, 82.96, 968.24)" fill="#e5e5e5"/>
        <path id="Polygon_4-4" data-name="Polygon 4" d="M7.891,5.763a4,4,0,0,1,6.872,0l4.285,7.188A4,4,0,0,1,15.612,19H7.041a4,4,0,0,1-3.436-6.048Z" transform="matrix(0.574, -0.819, 0.819, 0.574, 1288, 476.057)" fill="#fdc477"/>
        <g id="Ellipse_222-4" data-name="Ellipse 222" transform="translate(942 514)" fill="#fff" stroke="#707070" stroke-width="2" opacity="0.53">
          <circle cx="4.5" cy="4.5" r="4.5" stroke="none"/>
          <circle cx="4.5" cy="4.5" r="3.5" fill="none"/>
        </g>
        <g id="Ellipse_226-4" data-name="Ellipse 226" transform="translate(199 531)" fill="#fff" stroke="#707070" stroke-width="2" opacity="0.53">
          <circle cx="4.5" cy="4.5" r="4.5" stroke="none"/>
          <circle cx="4.5" cy="4.5" r="3.5" fill="none"/>
        </g>
        <g id="Ellipse_223-4" data-name="Ellipse 223" transform="translate(452 737)" fill="#fff" stroke="#707070" stroke-width="2" opacity="0.53">
          <circle cx="7" cy="7" r="7" stroke="none"/>
          <circle cx="7" cy="7" r="6" fill="none"/>
        </g>
        <g id="Ellipse_227-4" data-name="Ellipse 227" transform="translate(602.748 969.748)" fill="rgba(255,213,155,0.18)" stroke="#ffc679" stroke-width="2" stroke-dasharray="40 50">
          <circle cx="13.752" cy="13.752" r="13.752" stroke="none"/>
          <circle cx="13.752" cy="13.752" r="12.752" fill="none"/>
        </g>
        <g id="Ellipse_228-4" data-name="Ellipse 228" transform="translate(1291 209)" fill="rgba(255,213,155,0.18)" stroke="#ffc679" stroke-width="2" stroke-dasharray="40 50">
          <circle cx="16.5" cy="16.5" r="16.5" stroke="none"/>
          <circle cx="16.5" cy="16.5" r="15.5" fill="none"/>
        </g>
        <g id="Ellipse_224-4" data-name="Ellipse 224" transform="translate(1635 274)" fill="#b7b7b7" stroke="#707070" stroke-width="2" opacity="0.53">
          <circle cx="7" cy="7" r="7" stroke="none"/>
          <circle cx="7" cy="7" r="6" fill="none"/>
        </g>
        <g id="Ellipse_225-4" data-name="Ellipse 225" transform="translate(988 103)" fill="#fdc477" stroke="#ff9300" stroke-width="2" opacity="0.53">
          <circle cx="7" cy="7" r="7" stroke="none"/>
          <circle cx="7" cy="7" r="6" fill="none"/>
        </g>
        <text id="_16" data-name="*" transform="translate(622 615)" fill="none" stroke="#ff9300" stroke-width="1" font-size="47" font-family="ProductSans-Bold, Product Sans" font-weight="700" opacity="0.7"><tspan x="0" y="0">*</tspan></text>
        <text id="_17" data-name="*" transform="translate(1676 962)" fill="none" stroke="#ff9300" stroke-width="1" font-size="107" font-family="ProductSans-Bold, Product Sans" font-weight="700" opacity="0.7"><tspan x="0" y="0">*</tspan></text>
        <text id="_18" data-name="&amp;" transform="matrix(0.985, -0.174, 0.174, 0.985, 804.506, 348.362)" fill="none" stroke="#ff9300" stroke-width="1" font-size="46" font-family="ProductSans-Bold, Product Sans" font-weight="700" opacity="0.7"><tspan x="0" y="0">&amp;</tspan></text>
        <text id="_19" data-name="&gt;" transform="matrix(0.985, -0.174, 0.174, 0.985, 983.006, 799.541)" fill="none" stroke="#ff9300" stroke-width="1" font-size="46" font-family="ProductSans-Bold, Product Sans" font-weight="700" opacity="0.7"><tspan x="0" y="0">&gt;</tspan></text>
        <text id="_20" data-name="*" transform="translate(1156 933)" fill="#c3c3c3" stroke="#a0a0a0" stroke-width="1" font-size="27" font-family="ProductSans-Bold, Product Sans" font-weight="700" opacity="0.7"><tspan x="0" y="0">*</tspan></text>
      </g>
    </g>
  </g>
</svg>
